<mxfile host="Electron" agent="Mozilla/5.0 (Windows NT 10.0; Win64; x64) AppleWebKit/537.36 (KHTML, like Gecko) draw.io/26.1.1 Chrome/132.0.6834.210 Electron/34.3.3 Safari/537.36" version="26.1.1">
  <diagram name="Page-1" id="i773-z5fooT3T3S39814">
    <mxGraphModel dx="1421" dy="766" grid="1" gridSize="10" guides="1" tooltips="1" connect="1" arrows="1" fold="1" page="1" pageScale="1" pageWidth="850" pageHeight="1100" math="0" shadow="0">
      <root>
        <mxCell id="0" />
        <mxCell id="1" parent="0" />
        <mxCell id="z0f8_SjItQ-B4fkTCba1-2" value="&lt;b&gt;&lt;font style=&quot;font-size: 14px;&quot;&gt;AWS&lt;/font&gt;&lt;/b&gt;&lt;div&gt;&lt;b&gt;&lt;font style=&quot;font-size: 14px;&quot;&gt;Parameter Store&lt;/font&gt;&lt;/b&gt;&lt;div&gt;&lt;br&gt;&lt;/div&gt;&lt;/div&gt;" style="sketch=0;outlineConnect=0;fontColor=#232F3E;gradientColor=none;fillColor=#E7157B;strokeColor=none;dashed=0;verticalLabelPosition=bottom;verticalAlign=top;align=center;html=1;fontSize=12;fontStyle=0;aspect=fixed;pointerEvents=1;shape=mxgraph.aws4.parameter_store;" vertex="1" parent="1">
          <mxGeometry x="620" y="196" width="75" height="78" as="geometry" />
        </mxCell>
        <mxCell id="z0f8_SjItQ-B4fkTCba1-4" value="&lt;b&gt;&lt;font style=&quot;font-size: 14px;&quot;&gt;aws-config&lt;/font&gt;&lt;/b&gt;&lt;div&gt;Git Repo&lt;/div&gt;" style="verticalLabelPosition=bottom;html=1;verticalAlign=top;align=center;strokeColor=none;fillColor=#00BEF2;shape=mxgraph.azure.git_repository;" vertex="1" parent="1">
          <mxGeometry x="190" y="210" width="50" height="50" as="geometry" />
        </mxCell>
        <mxCell id="z0f8_SjItQ-B4fkTCba1-5" value="" style="shape=image;verticalLabelPosition=bottom;labelBackgroundColor=default;verticalAlign=top;aspect=fixed;imageAspect=0;image=data:image/webp,UklGRtBJAABXRUJQVlA4WAoAAAAYAAAAWwMAWwMAQUxQSOcoAAABHKMBkzD/vxvQZIyICRDvqCLoOBtdNmzcia1X9Idt2zI7zf+d133dK0GSkECgAQIhOMElJYVSw90qSKG40xan7oX6p4ZrDeoNUAjuHtw1kAQCJEgMwrqv+zr/WPM8M/PMmjXTlc/n+42ICVDcto2z/+JpV153YERMAMUAANM2UgQWg21JBpkp4KR0uP9spQH8EBETgP/f//zP//zP//zP//zP//zP//zP//zP//zP//zP//zP//zP//zP//zP//zP//zP//zP//zP//zP//zP//zP//zP//zP//zP//zP//zP//zP//zP//zP//zP//zP//zP//zP//zP//z/KQy62EqIisVUQwwARn1micVOJMQAYMwX/vj2ayMgi5VIFADjj7rmHWZOH/4/MZGgGmNUDSEEkdBXNcaoIYh0lQCdcMotC+nMvf/7kqAxBjRbYtQgXSHBCt9/MJE0c2bO+F9WUA2oGUeuvfVeh5/6499e/rerb7j59jtuufm6/1xx4a++85WDd500fnhEzRC1+6PYg5lmTvJ/WiEGABi+zi6nn3fdU2/3suG+aPbjUy44fa8NlgEgUbo+u7LXWft/VxogWH6X7095ObEwp5SSlU4pJXMW5ulTTt8kQKJ0eXZj5v+2JAZg/AlT3mHfbMlydmeD3d2zJcskafcfvywkLtYQFD27X/0BnTlZZnWzJXe++a2R0LD4QgjY7SE6zZyVdzPnK59HCIsrKFb8Jz0bW9XNeeWy0MUTFBNfpRlbORuf3QBxcQTFVu/S2OqJs7eGLn4QsOoMGlvf+M5E6GIHgn8xsThbSim3BI2vjENYzECxBzMLPbNmzq3AxBsUixkIptAKcuaMP37jtN8+6sytwMRToYMoQiytkBijFEiM2hEErLeIXitz7knDIYDu9CStFZxzVkPoSgTpSjS0BDrEiOOZWDNzxmYIqqoBw65hbgEm/gLafQgxoLmdWsB+l/zmd4W/ueh4rHXO7385GgJAMOonF3x3CcjAL+CPBc4Pt0GPAIBEjHiEuQWcb4yBdBdEFYLxoyBdB8X5TCw0TsGnaNwXCkCxN/nKiE4AeJS5hvGX6EFhD3aie/VoPBLaTVAVYNT+/0qTELoOgjEbrDthje3f50Hj1l9v/dWwjS/i+TUC/ky+MLwDECz7Zi1n7wYIRRC5n9YS/0HoGmgUYKmdLn2TmVt2IWoGjP+Qn4QCim04ny8sCYFgzJwPOK0TCFjnfXof4yMBZSN+xtQCmTOGQ7oDIoBO+sVLdObeLoWEELHmh/w0ekKI2Jp3PciPQaH4Eq9Mrw7rCLbwoquhZRTH0FrA6RsidAcQ1v/2Y5nMKTN3KQAErP4hPwkFFFtz8vf4HSgCrlvwJU7rBBSfpBdMrufIlmDm7tBugGD4fzPpKZPsnlzzUd4NBKzK/2zJlzuD7ZgLpqJ0xA+ZWsF4CGI3IGDsO+w1Z82uyS14mWuhB0dzv034UmewIzP7OheuhVAi4FZaKyQe0x0QrPQWnYVdkzvxOx6FHtzGZSd1GjR+Fz1FER8nvTWO7RrM6cLcge35L2BdTsGnOg7n3I3RIzWi9NxO42Cb27HMjLljcAaPwGc6DmY+PR4hxhgD9DJmDrq5DTifu+NhG4dPdR7MfP2ACECw+R00DsrZlb9Yg1cDn+xAmDOf/PnRh33rpl5mDs5ZZu4jZ/Ng4BOdCHNmTc8cNPN+0Va8BRF/5Ly3x/Z5oQMhczJL5hw0s8aH/HStrXkbevB58l/owSc5bUQn0vKDLQQrXnPTRghAwPp3/RQBy//tjl3Rgw1vv2zJxT4aKYCgYxz8IyFIQQh9QggAJITFQTrbxV96rZp5sYydaexPFy8ImHjvzbdW8bYbnqMvdlHdiKOZBjQiIajGGKOqBpGWEJUOSEJQjTU1BOkvRIJqrKkaRLoKUs0eHDNwEVVV1CuqKtUSVfSr/ZPUbqWgKqhTVaXFJKgq6lbVzkwkNFCrORTHVktC/dJPicaAvmHkKpts+9lDTzjtuB13mLT28j0ARLUyohHAsO1GQSqisXSoQ2LNHqxSx1YYEktLxSTEqEFQO2gM0goaBUAYvd72+x978hmnfvnQPSeOXRIAVKVVRGNA3zh67U989oivnn76V4/5wnbrjY4AJGqHJSEqWjfi6Go1NESV/kaiAsAymx/008lTZy5iSX/7sX+eNmkJIGgVRCOAJbf9/YwF4xEqUkXBSnVsgYDGNytERe2ekSus+JFlFAAkhoqJBkAnHHnpA7NZ9oPnrvve9ssCiKEFJCoALLHR586a/OhsZ9k5D19xwiY9QNAOSqMA0BHjNtysNSeu8SNadQTjJm66WfkNVl4SgMR+RRXA0tt847rXjLVzNkspZ2ff/PzPNgA0NEujAEM+/qsX3PneuKrIYd88/YzC07+9EUIJwcjTzjzjjDPOOPPUHy0s4/zdSWeeUXz6mSePglQkRAHQs9Zep50/5ZGXZr4x+82Zz912/nGbDQFUq6QBmPCdhxexb86WUkqWnX3f+Os+wyAaKqYKYKmPnfLvl3tZ07OllJKZs296/IcbAEE7JA3Akh897cqHZi8yb1lWs4biIvZ6eXt/+o0//FhE0P5CYgBG7HnZdJJ0s2TuLOs5mZNp8iSINgno2fInz5DMvZxbEUF4kpmFxqOgJQJWT3Q22/n+OghVkBiAsNYRf34usV5/9uwJgIaqBIXuMqWXdEvmzpKeLWU6p39vLESlOhIDMGrfP7xKkm6WsrO0WzIn05TtAZUOKCiw4U+fzWyHBRczsYE+9aAeaP+gAdjk1zPo9GTubKzn5LRLxyBKM8Km330sk54yvTKAPMIPU+EiHlrH+A+sN9Wsw1LZ3jx3rSpIDMD4k+96n07mlMxyzp5ztmR0fnjl+tBQDRVsezfpKTsbmlN2vnvWctBQEYkBMvGc1+n0ZNnZ4JycnLIRNHQ8GrDl5F7SLWVv5WpdxF6v25I7H5iIKK2nAbrrTYnM5s7mmnHWPlBpWMDGme4pk6zWE8wsNB5eT6Kz2c6FVYgBcad/L6TTUnbW69mci85eErECErHK38hsziZmc846TEQrEQOG7HObkWbOJlvmom+paGcjER+52JhTZlssuJiJjbTERcdBpcVEIbvdR88ps4Juzh8jhMZtwWSsPbBQxZD9ppKezNloM05dB7FpQbHfHJqx2W7Oa8YiNk8DevZ7lJ6Ts7x7I0gzTlkB2slIxG6vMZuzTTaJtMzvQVsrBGx6A5nNWdqtrJcis/FPPSIN25zOgUgEdn+YnpOzmZ44+5OITQoYcg7dWN6z9c1eiszG17dHlOaICnaZSs/mLM7WN2czs1wXPfGpNaCdiyi+RTdn22wac+I3oK2kGPGLXpqxrFtyls/Jy9AT/9Ej0qgt+qEP3XLNOnJp4/wmjQQ2uoFuxrJesw7SuGAHaFMUo29hyizrllmcUy5DmucTodIEiQHrX0daZqGbsV6zOsjEF1dH6FQk4BymzDbaPHrm56AtIxFbPUMzlnQzkpz9wD9/9bXjDjv82K+de8tbpFsZMvEyhPaR6Gy2c+E6zRnW8/0PaMZit2Tsm5PVQeN7k6BNUIx7lMlZ0oykvXL3vy/5223PL6IzWxlm44+g0rAQsczZ79OMhTmRzC9e84sT9t3hU5/e6YAzL394EZmtDiY+vCykQ1H8nr3OAQUz31oToUVEcWIvzVmczcl3rjp50uiAksvtesX7zF6Gid+DtgfByg8//ljfR5+2ci888ljJR5+4b1xTXv7UVGZjoadMkv7B/AVGMls5GqeNRWhYwKrPMLFkzuRrl3xxveHou+T4fc59hcy5BD3xZ9BGacAuLzEbC7ORC/97/AZLomxc84T7SfNyTPwrQmei+BaTc4BB478grSEBv6ZlFufsXHDNgaMBQLQ4QLDO35hzGc/cB9oWAISairFz6EWZkxBDaZSvg1y0kOasnY3Od27+4Rc+ttYqq22yx/ceMGYvxcSrIY0KWP4RJpY05z37jwAAUdUACJb+/N10K0FP/CG0MYplL6abs3bO5DOnjYMAWlaAsP29zF6OiYdCOxHF3szOAQcz94W2gohcxOQsdHM+d+Z4ACGGgLJBVbD/e8wlmDlzVUibqC1YqY4tEVCfomfWNnPO/dvnx6Bk2Ooa5lyKxuOhjREMvZ6JxZ74wr4B0BgEfSVEBcIXXqWVoBtPQGyEYNuXaJmFlvnY/ksAIQZB6RAF4avvM5fLnLYcpPMQrDKTmQOSqT2QVsC5TCz2zMf2WwIIUdBAjdjkVeYSNP4doU1IzYCV65gElXBTYc7ks6esDEGIUUMIIcYg2O9t5lLON8ZCGqI4j4nFnnn+cGgUlJcYMOovNC+ie9oZWp/gB3RjsXPmkUMgMaCBoopJM5hLMfFMaOcRcDkTByLM3A9aPcXBTCx2zv/qEEgMaLD0YP1ZzCVo3A/aHmoLVqpjSwTUF7k5Hz1wCUBjQFmN2Ggacxkm/gzaiIgjaCz2nI9HUEEDY8B3mL2ImTPHIdQj6JnOxLIXLgeNggZLD9Z+mblU5tNLQjqNgO2YOTAx3gZpha+Vcc7eHBoFTezBtr30EpnPjoQMnNwyn//iEEgMqLsHE2Yxl3HOXgVSX8BGc+lF7vmLiAGNDRGn0kow8b+QBrzCXJR5OlQFTYzY5B16GTq3h3YagptoAxR3fhyhBc6kFRlvxxBBc3vwTVoJGr8OHTBl4ztnLIUQBY3swc7ZvQQTT4XWJ+EWGoszT0SPoNEScTatBI0nQOubXu5z6EFze/BF5lKJZyN2GIrt6Byg0PhbaAt8nanMnQhossiQB5lLOF8fAxkgmfOKVRGioMERP6WVyXwA9SuOp7HYeAEUTZQg19BKOGevjtCcL0CbBMU/aWWMN0M6jIAraQOWzJeHQ1rsjuZBsQu9BI3fhA6I3PjSrpAoaLhg2ReZSzhtY4Q6BGNn0YsynxoJaQYCVnuDXkTj5c36XPMCNv2QXiJz+hBIRxGw2nv09nVRs+jcCdrvQXAjrUTmS6MgAyAnz18GGtBMxXG0EjQeD61D8Ssay+wJRXMjjqGVcOatEVoLAX+nlXC+t1KHoTiWxrZ0TJ+Lm5b463ag2Ju5BI2HQQc+zg8/i6BormDUK8wlEv9UT8Da8+hFxv8ioOnxHloRjZNbTrEXc6n310boKAKuaU/GwxAD/ti0zMcCpN8TLPE0c6lbIQOfzOlLQ9FsxS9oJYxTFVJK8SsmFju3gzZNsQdzCadvjdBaguVm0cssWq+zEKzwOnM7yty7z2Rak5yLNkDo96D4MVMJZ+9GCAOgGSMhTQvYimWds5cvJ1jxDXqR8U4IKih30opovLzVILia1rkoPsPMNuzkR6HAA8xNovEwaP8XsBVLG78BHQgNr4BgiWeYy/jaCGUUX6axzDHQCigOKuV8bzxCa0X8gKmT+QatPb07GgHDZlXh4nYgWOI55lJ3A9IRQPEnWgnnVuWAe5iLnO+uAqmAYOR05iIaT4K2luJgWucScFV7Mt4BKDY1erMyHw+Qfg+KS5lKOBetg9ApnMRUagdoiYCJzpLGaxBQRcW5TCUy70HZFtmO7p2KYOmXmdvTjxEVhzKx2c6FayC0g8NpJWg8ErFT2JW5ROaupSK+Qyv1VWhFdqF7kfPD9RFaKmAzsmMJWN/pbcidkxAUf6E1jZl7QPu/gI1JL5F4KbQzCNjU6A0S4I4yTm6BUAnBqNeZi2g8AdpiEzoYxQE0tmHjnUDAcjOYm2f8AWL/Jxj5KnOJzKcCpEMYN79hAasuoBdlThsOqQQCrmIq9S+EFlu3g4k4i6k9HQhVHEBjFf6D0P8h4E5aCeeCNRA6AsHoOQ1T7MvMYuONCKhmxDdoJTJfGQHpVgRcTWtDxvsiRHBjJTKfXQLS/ykuLsXM3aAdwog3mRsUcRZTicRfQiui2IG5hJObInQpBOF55jbk3B6q+DTdK+BcNA6hHXyNqUzi6R3DsDcaFnAtrdQxiBUJWH0hvYjGLyF2KQJWfY/efhJ/CkXAdTRW0bkttP+L2L+c8bKORxBfZC7yzF2gFREs+QJzicSzuxaKrejtJ/HGIZCIA5hZycSjEPs/xWfoXupOhA4nYNX36CVomyJUBAF30koY/4bQpYj4PBPbbeIjyyMEjJlWnZ+2g4CNE8tkPr8EpLNRfJTl5o+FVEXx5zruR3G3QXFG28m9vH9FBCj+RmM1jX9DaAerzivlnL1i57MrjWXeGlalnzOVyHw1QroVv6G1FbfMvy8DRcSZNFbmAUj/Jxj5FnMpWxeh0zmEqUTmS0OqdGYp55zluxd/bydu5nznGISAHhxE96pkThsCaQM9M0sx86Odz0l1PBaqE3FsHQtWR+hOBNzaSjlbpZPRufC8VaFBevD5XndWZ/aYtiDP17MjtNP5Tinj/ajSwXX0btCtAB5olZzMWfnex76zOkRFI440d1bW+cG6CP0egMfq+Xzn8+M67kJ1I/arI2/WpRDEJ5hbwJOTzG89M/Xeeyp72z9+fsgGAdAgET0/Z3ZWiVu0hwfLGQ/tfH5Wxx2V+hytFCd2LZZ8rgXcnHzxooM3HTMEVZcYRAMm3EVzVinzk9B2cC+t3LGdz09a6PNMpXyLrsWwF6uXnXMv+/QS6CuhwqpRQ1TBqB8spDkrbdypPdxdz4mdz4/quLtS+9dhm3YvXqqaGxf+n3EQxKhBVSujqjEKBGNOn8FsrHjibu3hnnq+2vl8q1TmVECqc3AdiyZ0LZZ6oWI587p1IaqiMaD6y+5+2dv07KzePu3h/nq+0vmcVMdTWqWj6pg/vmsx9JlqGRccA2iQKACGjd9w8y2qOvHjux37q5veJmmZ1U/csz08wlzuuM7n0DqmD63SSXXMGQ3pUsjDlTK+vAWiQgWy6deue2kBK5/N2YqJu7YFeaaeQzuf3WklnG+PrI7iu6Uyp/d0KSC4i1Yd49SVEREUQw+8x0jSc5UtmTtb07h9GxDEGeUyP9f5bE33MgtXR6jOr+t4CMXdBsW1FTI+uDwiQsBOj9E9WXa2R3du1RZGvlXPtp1OwNoLWMq3rNKfaCWMkxG6FpdWJ/OFsVAohl9EmrGNOtNGCP1ewGrz6WWcmyJ0NoLhM5mLaNwbWpWAm0sl/hqxa/HjyjjnTUSEYvzDtMy26nx31bawWS7lXDC+04HgPlqJxC8jVgV4jLnUiV2Mo5gqknk0IhQTXmFim82cvjSk31PsxMySmTNGQTocxWVMpX4HrYhguddKObeDdi12plXD+E8oAsZPY2L7eQiCfi/icKYyxqkQdDgRJ5cy3oJQkYD1jF7kXLAyQpciYMMP6VVwzl0XQTDsPia2XeM/EPo/xdn1/BXa6Si2pZfInDYCUg3FTswsNk5VSJdCMHIWcxWMZyMi4PdMbL+JP0ZsB5NpZRK/2fkIln+bXuT0TRCqEXE6rUTi+VB0KQDcXwnnnHEQxY7MbMPGA9uAYMhTzGUyd+98ILiJVkTjkdBqKP7MVMJ4QBdDcTFTBYznQoF4b1ty+iYI/V7Amh/QSzjnj0dowrzxnUHEt+v4c0UEQ55gLnLOXx2haxFxUhWc3Aaq2I+ZbTjz1WGQfk/xOWaWzHwI5ev6YL3OIGASy2ZOGw6pQsA6vfQi460QdC0U29Gbl/lkhAhuprUj49UIaAPnMJVJ/DW0GdwS2gkI4mPMRXRuC61CxGE0lvkqtHshWHEevWmJv4EGbJzo7elMxH5PMORp5hKeuVszaNyrM4Die0wlEn9djYAryzjnrYHQzZAHaE0zHgCNOIOJ7XkSQr8XsDVLZ84cBalj81KJX+8QAjbupRdlThsBaZ5g9Cx6kfEfCOheQHEBU7OceQKC4FpaO8p8bilIv6f4JVMZ4yVQ1DGBZY1XIXQEEFxDK2Lm/tDmKfansThzV2h34xBa82aNQsBSM5jbkfFcKPo7wXLTmctk7lDfKovoRZlvrADpCBR7Mpcw3gJpXsB1ZTLvj5BuRsCGRm9S5qMRinXep7ejzN3bgOJ4GktmPhIh5QQjXmUuYuaB0P5jxdnltoa2E4Hex1zkzu2hzQrY0uhFxoOg6GYIep5mbpLxDkCxNb0dZb4yAtLfCYY/x1zGeAIUdQruoJUw3grpP5Z7nbnMTu0Fiv3K0HgDQvP+TGNh5gM9kK4GFBfSmnYzJGJ75naUeA4UrXVnBSK+RmPJzGnLQepR/LYUnXtBqxCrMeSFMsZD2gwgt9OKmPk5aHMU22R6mX2h6Hbsw9y0m/rsyMw27Nyu5W7HEGmSYoO59DLG06Goby/mMplPjURomgY8XgEI7qEVJZ6F2F4Un6GXem4UpBkS9DYaC42TEdDlECz3On3AkvnEUEhLZU6fgBClGUGG3kljycznRkDqEoyeyVyCxssRQ3NCFOy3kN48xSVljNdC2gsCLqQV0XgBtBk9OJPGQue8Cd0PKC5gGrAYvw1FS9G58IcjEaI0LCguobHcQVDUrziHqQyNP4SGJoQYsMa/6SzZuIjjmYqcb68MaS+Cj0xjLmLm4ehpXA926HUvMp4MRRfk0/SBinPB2ggtRjdOP2ooJIbGRMHvaCxrvAoBDQzY9EN6GWb+UhClQUEFy/5gPq0SAZskegGNxyO2Fyh2Z/Yi56Kd0dOoHmz2FjMLjZMh6H4I5B7aAMV4BQJajW7OJw9eEhI01KWKEX+nsaxzztqNQcDFtFI0XjcWQUN9QYNg5Ckzmc1ZBYHcz1yU+fQwhPYCxU+YiuictyNiaESI2HIWMwszXx6L0AWB4sABi/PT0NYj3ZzPn7ISAI0qUkNEowA7PE9jaeMhUDRUsNobzKVonHPikkCIKiJ9RERjALD691+jm7N846D4Cq2Ixp+hJ7QXEb2OqYjZFx0JiaEejYKD5jOz0PnBNlB0Q4B4H/OAxHg9BP0BmbPz3T/sOgJ9Q4waACBsM9lpLN3Lc6BosOIQWjnmzGe/vCIEgKhqEACC5T//rwV0y6y3CYLRM5mLmPkVhBikjSBghSdoRcyZf1kJEqKKABAJGkWw2pXMmYWeeTAiuiOK3QYozh2h/QSZjeRrfzl685GKvjr6k996KDNnlk68aSikUQg4h6kcPZPvXnXipNE9qDl0xU+dctUckpZZfxOgOImpBDPPWRYiGjWItAco1nmVVkQ3zvneWAiAEIKg7/q/nktzFrrxJCi6JAj4I9MAxPg3BLSe5xqkJyPJOVOvvfKPV1z7yFw6s7F84sPLI6DhInEyUzkyG0nOffLWyX/72+Tbnl1IkmbORjZDEG9hKuHGN3+8YUQj+y8o1p/OVESac/6/jtx4tAKQEatv/+27eunG4px5MhRdE8GKLzMPOJzz1u8XSPMaJHMylvSUneUTHx+LgCYKlrqWqQ7SzVjWkzlLmpU7tGEIWGsWrYg054eP/P7QT6y5TGwXUKz1DHu9iG4k7fUn7rvr3kdfXkjSLbPYPB0BRfcEik9/6HmgkXgyFC3nnPEks3ktku5mKSUzd9aZE+8dA0VTA4b+iZbrIOmezVIyy+4s6eYsbTykcVB8Yh6tBN2cJBe+8+w4hPYAxQpTaFZEupmzMCdzFnviGzsgSjcFikOZ88Ai8R8QtJ7xVv3ZAmbzgsZb5hVLQ9HkEPAtevJ6GupmJO896wN6iYOaAMUnZzN5Eek5JXcuXKdtQEV/mGm5iKTnbGY5O8u6Zd44DhEN7lpAcSzdBhK9fGBUP3EnsPYfeumWm5KNC09ECGi6KHaZwWxNcjM6516xAzbsLbVfMxCx7kM086K+njl/rfaBoPjk48yWSzTSLfPdrygU3RZEfHYeLQ8UcuIDYxDQL9yBHsGGly8ks3mDPGVyynqIggqKYvT5iW7eIHdLTufCm49eEYpNy+3bFCiW/MFCejIvQefCBqRcmPhqVV5nyrUtNQWiWOLk1+nZvEFuRn5w4SpQRTNeYcqFqTI5W65tfL9TQcSEe+iWfABg5vz7SCj6ixBUsMZZr9KZk3k92YzOB/cUqKCaKph4tZE5WfYS7tksGUnnW5OPWR2A9mCjcrs2ByFg7Yvm02nJsnut+XXtzszCzBkjKvIGM2t75u7NADRg9JnT6MzJch3ZktH57nkTICpoynRmFmZ+viKks7Zz0YROBYp4xMt0ZktW/kPeUK1srZ2SuXPGlxAC+g9AFRi2z1/n0Em3lJKZWUpmpHPeP3aKUEVlgwKb/W4mnWTOZmY5O2unmdd+Z9tRAEIMCNgklfpMkyAqWPWUuz9g7Zxz5sK169nunRmvFc6YPXVYNZZ+9K2ZrxXOnLNdcyBRsPTe/5jDvtks9TXLTpILbz1mDEQDmimID86e8VrhjHd2r8aar70287XaM2dNW6tjQQhY+otT3mPdxpur1Q8uuu+EkVBBvwKEKMDoPX/9wDss3/vCXw9bGQiKSmsAhu/8sztfTyy2t1+498rvfG6TpQBAYwCAgM1zicytmgUEBbD6Ab+86ek3F5Gk843VywGhp3RERXvKBzQ7RAGW2+Nnd840lvU3HzzvwHEANKDpsad0QCWlp7ygc5UowEq7fOPiyTfcWPb6u35aJeeMa2+6sYWvveJnB62rEBX0N4BEBRBW+vgRP77sPzfcdMNVV/zm9L3XXwpAiIKqBwWA5db/9OcPOeLQL+6745brjV0KNUPUgNoBE70EuRlCs4AQBQCGjFlr4y0mTdx0/XER7VdiAIBRG+x4xBln/fK3vzr7a0fvuvEKAkBiQJdXYkCDtTKJ5yKi1SUKWrkOgEQV1K0xoCVFY0CdQWMMgrKKj7HI2TuhCgBCVEUTpXxVpM4KAAhRA+oVjQHVlDorIuU7GwBBY1Spt1rnoUdaOMSoQdDaLX2DaoxBREKMUYOglSVocQiC+hWfppeYO64ifSWEEFRDCPW1UQmqsbZqCOhyV+l8DNVqCvrrtnaq2JmZtTNnjYZU5n/vVToHEe39IiL2ppV4ceggEOM/15k0sYpbTFoB0vl8ianEwxAM+qhu4rGInc9JJYxTEBYrUfyo1MXQwSBe0V4e0wldSCtI/O7gkKomHtv5BEwpdSjiYiXAY8y13LktdHESwQpv0Au4cDzC4iQBm9BZO/PFoZBBK55z56U4iFZgnIyAQSrZSNJyx/V7poLE7yEOTvFM9r72Wi+ZOypBz2PMBZm7QAeluPHhI9Zabrl1jnqU1kkFfJT0Ws53VkIYnOLfVgggiN+nd1CKXzCxtvFGCAajZH4ZGoNIiIpTmDumgLGz6SVOgg5GMf4FUVAzRPyD1ilFnEdjbefCdRAGoTjTxggoVEx0emcU8Vm6Fxj/g4DBDdszewsY74KgWBDuZy44qqOJ2Gg2nYWZO0MHOWxNb4XEc6ElEHExUw3jAR2M9GDtl5lZaLwegkGNAWstYCsYf1DPLwqcn4F2KiHio9NpLHR+OAlhcINg6EvMLZB4Tj0X1nJ+sCpCZxJUcPgCGosTfwTFIMeAK2ktYLwdoQxwD61P5sMK6URUBatPZs4sTryhBzLYIeKQlnAumoBQFLCJ0fsk/gqKjiPEIBhz1lyaszjx2ZUQMNhRsMIsevVovAg9Ukt68AcaSbpza4SOQkJUAWSjX79NzyyZ+Mo6UAx+VJzF1ALuPARRRSTEiKPo3sd4AwQdggSNUQAgTvjyHYluzmJPfHZtKAZBClacQa8enb3HQgBAcGKis2/mdgidgKoG1By22aHnPb6IdMssmY23jYFiUKTiYFoL0DNv3uMjQ4eO2etWZmffxAsR0An0XWr8p47/3c2zMkkmc5Z0c/5iCBSDJAMuYGoBeibffuLJd8jMmsbHl4UM/ARL7XvGxbc+/z5rWsrO0pb58s7QgMGSgiWmsLcFyJxJMmfWNL6xAQI6gWVfYybpliw7y7tlfvCzkYiCwZMBI25ir7cA6Tk7a3ri7C2h6NfObBMI+BsXWXbWn5Oz98r1EBSDKgOWvJKWW6GkJ764MSL6t69zkXk7UJxAY/05GbnoL5sDGjDIMgSc2UvLLeOWedXyUPRzh9HdU+7/AjYnvZznlOl89ay1gKAYfCkRkx6ip9wSbplvHyei6PdXP/k+Iz3lfk4w9AXmAvecjHS+ecVewwBVDMoUxdCvvEG3XDk3Z+/FY6EB7TBs/IOnSOZF/RoCLmfybJbMnCTTU+ftOQpADBi0GQKW/+4suqdcIU+ZfP8vG0FU0AaDCtDzyd9Pp/H2/iziMBpr59lTzz10/QggqGAwp0TB6BMfpjMn8wp4TpnOV89eG9CANikaAQzf84/prv4sYN33F8x64f7rLvnGFyZ+RABANWDQZ4iCnq1//aKTzMncG+ZuKZPk63/YYxiginYqqgBW3hb9uo4ds+xSgpqiMQgGh4oKMHSb7941j30tmWV391ruOZv1GvsufODnO40AEAParqiiLWqMqoJBpaIRgIzd7ac3znIWZuubnbX9zVt+ue9qAYCqoD0H7eeCiAgGp4rGAAAjNjvwB3+5b9qcD5yF789++e6/fO+gzUcIAFEVLJ4ZNApqDllpvY9+asfdd991x09OXGfMENSUqEGwWKeEGIOgXtEYg2BxUQlBi0MQ/P/+5/+3LQAAQogQQvjbCCEEIQQAHC8AgBBhnBBCKWWMc87FNznnnDFKKSEJxghCAI4QAACIcJJQyjjnQiqltTbGGPtNY4zWWispBeecMUoSjCAA4MAAIMIJoYxxIaTS2libZlme585570PwPgTvQ/DeO5fneZalqTVGKyUFZ4ySBCMIjggAQIQJYZwLqbWxaZblzvkQirKsqqqu6xhjbJoYY6zruq6qsiyK4L3Lsyy1RispOaeEYAQBOBYAiHBCKONSKWPTLHfOh6Ks6jo2bdt1fT8MwzB+OAzD0Pdd17ZNrOuqLArvXJ6l1mglBac0wQiCAwFAOCGMc6m0sWmWO1+UZR1j2/X9ME7TPC/run2+rusyz9M0Dn3XtTHWVVkEn2epNVpJzhhJMIJHAQBxklDGpdImzXLnQ1HWsWm7fhineVm38/lyvd72fd/v933f99v1erls27rM0zj0XdvEuiyDd3maGq0kZ4wkGIJjAESYUMal0iZNc+dDWdWxafthnOZ1O1+ut/3+eHp+eXl5ff/y8vz0uO+36+W8Lcs8Dn3bNHVVFt7laWq1kpxRkiAIjgAA4YRQLqTSNs2cD0VZx6bth3Fe1u1yue33x9PL69uPn79+//7z+9fPH2+vz0+P+367XLZ1mceh75pYl2VwLkutUUpwRhKMjgjuO+d3T88vr28/f/7+8+fvn18/f769vjw/fTZ9xR8RIEoIZfyj3PmirOqm7fphnJd1O1+u+/3x9Pzy8vr24evry/PT477frudtXeZx6Lu2qauyCC7PUquV5IwRjOEh4AQgTghlXCpt0ix3PhRVXTdtNwzTNC/rdr5cb7d9v9/vj8f9fr/vt9v1ct7WZZ6nYejaJtZlEbzLM2u0koJTkmAITgdBiHBCGRdSGWuz3PlQlFUdm7brh2Gc5mVZ123bzh9u27auyzJP0zD0XdvEuiqL4F2epVYrKTijBCMITodBgBAmlHEhlTY2y3LnQ1FWVR1j07Zd3w/DOI7jNE3TOI7jMPR917ZNE+uqKovgXZ6l1mglBWeUJBiC07EQIIwJpVxIpYy1aZY750NRlFVV1zHG2HwxxhjruqrKsgjBuzxLU2u0koIzShKMIDgdDwGAKEkIY1xIpbQxNk2zPHfOeR9CCMWnIYTgvXMuz7M0tdZopaTgjBGCMQLgdFgEACKcEEIZ40JKqbQ2xlhr029aa40xWisppeCMUUISjCAEp+MjABAijBNCCKWMcc6FEEJ+UQghOOeMUUpIkmCMIATgdLAEAEAIEcIYJ9/GGCMEIQQAgNMhFHx++t///M///M///M///M///M///M///M///M///M///M///M///M///M///M///M///M///M///M///M///M///M///M///M///M///M///M///M///M///M///M///M///M///M///K+vAFZQOCAAIAAAcB4BnQEqXANcAz51OppKJKMloaDSeKCwDolpbuF2d7iAAif8J/1XbBf09hzKnHXjL+hdMUebr785e27/I+o/zAP1L87r9gPch/VfQB/N/7x+0XvA/6T1Ff3T1AP5x/nPWt9RH+5eoB/J/7T6aH7SfBN/WP+F+4fwJ/sN/8v+J7gH//9QD/09WP1z/tP4x+GP+h/vX7Bdmh7B9n+br176LfbXQN/ad9Py41C3W/hD936BHqn9g80P6rzT8QL+W/2z0h/6PgtfQf977AX8o/tX7N+xnm2/Sv9H+2vwCfyr+2elv/9PbX+2H/09x/9Y//OEe0U7o3KvaKd0blXtFO6Nyr2indG5V7RTujcq9op3RuVe0U7o3KvaKd0blXtFO6Nyr2indG5V7RTujcq9op3RuVe0U7o3KvaKd0blXtFO6Nyr2indG5V7RTujcq9op3RuVe0U7o3KvaKd0blXtFO6Nyr2indG5V7RTujcq9op3RuVe0U7o3KvaKd0blXtFO6Nyr2indG5V7RTujcq9op3RuVe0U7o3KvaKd0blXtFO6Nyr2indG5V7RTujcq9op3RuVe0U7o3KvaKd0blXtFO6Nyr2indG5V7RTujcq9op3RuVe0U7o3KvaKd0blXtFO6Nyr2indG5V7RTujcq9op3RuVe0U7o3KvaKd0blXtFO6Nyr2indG5V7RTujcq9op3RuVe0U7o3KvaKd0blXtFO6Nyr2indG5V7RTujcq9op3RuVe0U7o3KvaKd0blXtFO6Nyr2indG5V7RTujcq9op3RuVe0U7o3KvaKd0blXtFO6Nyr2indG5V7RTujcq9op3RuVe0U7o3KvaKd0blXtFO6Nyr2indG5V7RTujcq9op3RuVe0U7o3KvaKd0blXtFO6Nyr2indG5V7RTujcq9op3RuVe0U7o3KvaKd0blXtFO6Nyr2indG5V7RTujcq9op3RuVe0U6F92inbSKc0B/qgPNqqH/uRi3UW3jcq9op3RtuGZJB4kZXA3jcq9op3RuVe0U7gBfxwy0fRQi7XxqXDyDAQHyi4IM2jcq9op3A+0iykKISkzwHbQC3KvZ1df5/6lDPCYYEk4psKAWeNUM/wsjt5gZ10blXtEZMsG8qJAM+sDKIy66Nyp08L3SETCTF3yWM2FALNCbB/yBYBqJcFE0rbU+LNMTU2HU98OdlKsyziD6CGaQqyItA4OfDe5Cd5YSDCBbU0XfmcqTkkulgz5B+VhQwh4NiLGXSCHPDH4CB3Obuxw/VC7bFMGkexohATN5v7sD3B+y6qmjFIpoJyF4u0NcfOwAw8gEjQmsxg/i67H5WvACwegjCKLud5O+e7Hg8z3Vezz9ojJrsWRQ5CFU3NDcq9p4z+0k2QPe9nf5101/ZiTP2WJFCyf1JWxwwh1QwBUvv8cb9amh1F9nuqwwhtsOPdCAfQR6Aro++HFMCAoEpiQp4FhQJpCTEvkRDGv3mfMVhswmkSZwuHg62HfeKGM2DUEYupsDCq4G8blXs6MMv4i84MkZpYJRl2u5WU8eLYzvkk3Tgs4uqycXzPsmnfhdsl2zmgzyP4xEWM7/znhaP+JujUgXsAryNfcjZeqPFx8cAOTaziZrTf8961VA3jcq9nRLYHfgbQ2R9fS6Hn9KB2AWxN2l4seVl/hSKaYJc7YS7c0Y2vB9hjnOR+yqazQSbswzz3DtZePbI4CNp/c5AtLBSUhucOzeGIfFO6Nyphsa+bIO7pjHybvLf////zo7DWcEBWmxZvSYDoX+03ZM+3KLpSTEBVTzggsiMt2eZyulXKAZAPoE9VcvqCyp+qgTBMQyTuC2MJyKLDZ9YENNcoROUIlpEWw5dCuxl1z9m8+4IDpI3qEBdhKmtbQC3KvWmlAL06jUsbxZQIMnQhTGsSvgN156KESlICUOvbEl+ztjV032JGWGDNEeD5mAaz43GzF7eQHJeSweYLGjBZuseO9bQCG7MgDJCQ4iGV+VAklBk7rq9aykC7kx4PX+TS/GqPH84HxwqFquSV5gQHWEiUV6KRVAsNG+7gQVL5Igu8HG09M8/aKdHX/CtQc3wdFFuEjjEalzp7A9DoiG0jktUBfeKgV5uNMa8/RkcZg6zRh/cyQItlmwn9mZYXYYWeftFO6NyQDmN7O9s6jHn9ykC7W4mZvgppJVMNLrW5OKLBVKviXwAoRVz3ecTIy66Nyr2indG5V7RSrCVLr3/QvGZKsOr9yipOqozTTfQeZFMWEffxL5kUWEs5YjHTjB8AW5V7RTujcq9op3RuVesI29HJF5ZQ1TmT2cjL2uBfW/8i+PQIR3g2LRM4zglBoYYT9JOKbCgFuVe0U7o3KvaKd0blXtFO6M6ltffFZ0rqAfSo8reuidWnFwQBT+z0fLkYV5Uzz9op3RuVe0U7o3KvaKd0blXtFO6Nyr2indG5V7RTujcq9op3RuVe0U7o3KvaKd0blXtFO6Nyr2indG5V7RTujcq9op3RuVe0U7o3KvaKd0blXtFO6Nyr2indG5V7RTujcq9op3RuVe0U7o3KvaKd0blXtFO6Nyr2indG5V7RTujcq9op3RuVe0U7o3KvaKd0blXtFO6Nyr2indG5V7RTujcq9op3RuVe0U7o3KvaKd0blXtFO6Nyr2indG5V7RTujcq9op3RuVe0U7o3KvaKd0blXtFO6Nyr2indG5V7RTujcq9op3RuVe0U7o3KvaKd0blXtFO6Nyr2indG5V7RTujcq9op3RuVe0U7o3KvaKd0blXtFO6Nyr2indG5V7RTujcq9op3RuVe0U7o3KvaKd0blXtFO6Nyr2indG5V7RTujcq9op3RuVe0U7o3KvaKd0blXtFO6Nyr2indG5V7RTujcq9op3RuVe0U7o3KvaKd0blXtFO6Nyr2indG5V7RTujcq9op3RuVe0U7o3KvaKd0blXtFO6Nyr2indG5V7RTujcq9op3RuVe0U7o3KvaKd0blXtFO6Nyr2indG5V7RTujcq9op3RuVe0U7o3KvaKd0blXtFO6Nyr2indG5V7RTujcq9op3RuVe0U7o3KvaKd0bbAA/v/G6gAAAAAAAAAAAAAAAAAAAAAAAAAAAAAAAAAAAAAWq1k9zm65ytM+Ie2CZ0BXRdTbaDLEE+i2PYKIXzR70nwBrmyLn72Cl79SvZtX/yHQL3eK65FtUaRVnAa46fs/RMSH4Z3ggRCONHuDhTMT0joCM9wSLoGpVyf879wxzLSfUBFGpj8x7U+yMRbSqP+AcYSaAunrJ/pNFvEHLGd9+yPgPsnxXb9SSCd9n2etetjdyg9ugraguWBMjeguGKrIUPzh02KwcGlx22ewdqIavRIcyidqkrJcAbUzEAEs9DNPrZV2POfn0xNfCfOfLTZSgqH4TwHBdY68Dfwlso3AdL5pXVbVIIg/BOF3egKrq1jSfMLspSBviHV9gVavYa+kraHM23FOY4K9yIbCxQIcINBMrdjN9kxg3v6AQauPRCH7kRc/eJJAAnr6rFWS902rb1WRUv6zEE/1gtwWpWx12tQ7etlbLKBAlltplfQX3S3KcZ9KNN7hMkxGmuCriW9DInXGfOVYLED18DfozOxhf2x42mtM03FvEIQH2QZ/NtRhd8nvcY0ap4xwobkluZcUHAGeEDiDCmDEfUea+HIW7puKAbWz8DBiQfFJGXfX824AKrxwqJi+JoQQeGC/eq/z348pQLWtaemcCtrgcOQYUFguAUy7pwaZ6esMs5OiSdSO8frWFwuGM79OriGKU8TjYvPdeOTVCjD2x42o3DrQs7YiXM4uXTvJzDbMoEJDLeKiR6uT6/9BrUKrGvchVCyG1PuoNyfUfLHHXJON1iidZUDbKipbboKfIkuSTFBkgtIbXrLOk+pDITXU940fuJYIBer1+7bfKBCSQrtC5uTwih6DugcgdIWylPLmkCfkU24IE6NsMkW549kvjNKKMqxwRoEQyvu/cYr1NRQW6NoxpE/5fDdI8++rOALHxozM+ureAyzA/cbV2RcNh5uGZAHNSHI3EJCXTedfT11JSRMbi03jO5HdBSFthf5039hBZVN9t8862Rt9am7iT8qlUHoI3KB0GIITQyLEfyThuc5fih17nHX/NI/r7I/7wCcE2FT5qYgNoEBoAQPX6PkfLp0vwHI2Zp4/jyJmhJr+wf2zhbPTbOxgq0M5xNEBgoH9bD8Q6OIIE+iKICRZYL4Ex22esFsnfXTtX4nKvs1bt9ZgZgTCgUainnPdfOl9tdcEjHPCf6CD4MMOjFdnE7WWfBByM264Emry1FwBhFu3eS0+goPdwaWGGXNRFLqJyjTdjI6+s3/5lBi4bY47E50CrEz+EI7D95Rzu/cfi7Zy4WzvrI9NtY6NwSse9NyZyCxvDWK27zIrwrikSV2SC9TBqi8/rtRRR/beOeY/6d2CvesO6kyA0Q+m0/4k0gqLeWoUrByj+iPIdUGPe35O4YJr3gJQYkNPIhrbiTmGuCfw96YUJw+QOcJSWKpFlUV4dG5LTyX7oMLeF0z2+X9HCCV5IrNGuH4pBDpuKo1KmQQYF/CGjomDnr3p5n+lGghDV8TLGde7TQgCQsZsJPTOWKl36NYavtphRP3Zu/ELSVKVXgWiVBX0fPmGvVBOSFuOKEmjSCWzQOHpFBF2m6Pwgwol0DfdNlAjdCGvhIEKGq/jnpF44Som2RQUnbxLpW36f2ER4ekQGFSh2zeDQ1OtbHWNoxokwQOd8FeL2x/oAywb6I3VoCmMSNmrQnrZG01LRkC7eaKxBxFYlbST31NEee6A0UKdFFOYVBK0tGCryispRxyigYNJw5BGHVzYoL9YfK/PBf1yKsI6+ZfcdFHzrIaMzUhg3hf9ZwQeh8/d6+dPrs90FIuxBn+YdwYOU/6js9y23LY6+jgKSrd+i8APRxMhlCCX8fBJpIc/W2q4qmYTo3SbP+CSNj1aIVjU3iHkl1AzDCG1DpkR0SF+rVC2rBAGE6OTQqY1M4+d3fMUIVqD2YggWaxpAyTgzi8iGBqEyImih4x05GehBcgdmTWIgImLeYmgQsKgMU4KXQUsJUtKNp3YndWYcJY44v7jl+sWOxqOoaTXJ30cx1EUxGH9QIzHkKPUhn3xPpWSdMBCpIFJ6z1EU10ZNdm0U4ZbcR9goTFix1bvAYPmbX4BBh/d3gOV948p1u5keWoawvFJEi0cjMiu6GuTPaQZmMbZIOHDwXfrey5vLWZCphwJ7p4dO0pzRK1Zke6L2PCKTqoreMCuT4NAc5pKW8hGNUJqMx6x1d96s6QIwde+UUjyc3Lyr1+9SBt32H2Kl/g9fw8nZ4zuJOLptsI6h2pVrSyDccy1leFJlfLFT5fNF8ngwBJvKi3n0XmqTHQzQEUKcJ/g7IlPmR1h0qTiD6mWMTkPPA9xgw1X/n1m1efgKu4xGNO7H8Pr/+tPxIQKQ+7qp5OVR4arx7/htSH1bSKWIa+C1FndDrzcRC3P+0NWegY5crbeatQ6OHEQ1RYU4WmdFe5Wvb+whi26JfUdwHEPzJbHi+x0qdLVucyGJHJ5NWsRHUWM4LdJAdKoGeCR+OTwcpQySECV4kYTC+sNKrHf7ZJyFmtYs+cpcXr+oepiXaR8btgXqM4UK0IKt8f4xB//rebnfD6r0N5YcAri0o0NlIRj3FXJlSiwHD827RzGi+E8DJQWThBd2rJetctWXuNs0zyH55aJq+W3YpQ24Jhva/c1fDoYK4ljHrVC893ayiWK6QMYc4uG6lh6lVbDwKhxlRFPt+uQARcHJtS7HuoDLhfCYlBL09QOjKtQaXnCJZAr85GP+pHZJvIZ75hFToNwTz5FFLCjELpd7oEICP5//yEaAk0ZMemF2Mimj92PfTVCdycmZ3TsyHYg01DKzuyZydXng0++ptMqJXCntj+yzXDL3CHj+z3bXZOxot5vRpyB14xr3bxEyNROrgX7o/Sx1mLJE9uSuzWawaeWJ7IAM+8ZtSdUrq6qSk9U2hyJ2Cmc9nFxffrhPUq5tZypvpgiYSARjXRUm//jAZcNgAH/ljE/UVNGE7ofADw39JgSHNXsNDn1cnLyJCfoBM92Q5anKp4mZQZIzEHthDXnyU42HNuK2iL2B8Zy68aqntqkQN4xxxHsNTN7dJ/VhgTOsQRJvPRYNd79kWVopcxAuODYhphW8ONt5zJH/B/mqXIUwYHJZL1L7uBoKv+2wmZdmO/9gPJKPdZFvH249JlOosJZJr+8bCS1VUnGBWy5cjXWYCd9/UOgh2T+c84HWF9HY5HqQzjWUD9EQkOYOSwFTOBRBCvWdYayRX40Lvn9rKmUpn9uftzfMl64RjHKN29MBUKRoqf9T1QAkdZRg88a4Q6EJBJOjGcpalbL9AomPwfAJvFLhenMo2PtaL+RK03yc0iqeJ/mdBnqUn5dkFN/IN3YRLvEp04QJegupT37AVp0A+RgpBK9Bu4zY9JM59e15FsmTSCCNExWJhnAOpyDbyVTQf8qj8RNdaGX+YIdqrPb0QUT5JMBqQzABAjrOl/pTqSWXPlPokDp6wQbDWqT1/CJAyIG3ZmztDHUSWglnWaOOPOARGjmGHdB/zSHoN9Ej3cvXlZOjUCNRn+Dx5bcw9adcQK0PsWe2awmPUkCwG2SP7vDZj75BU/FZYNnmOP9+2poncwTo8h/H93Bqm1XpH2utRYmYL2upkk8kkxKGsucz4g0xOHpl/yK5qovsDzFScExtGiD1B4aPfYn9s7WRBc7QDUak7/n/kwZdSWkvIJyNosqd7JikrTsZ+C1upu1Af6d9a5OhjJtc5YpomLBcKxsgY20WzurDt0LasQ4fbLWfmqJcohvKrqEiC/aS7fqWd2L5iUvpGp0e0GLfJIp02VMhb2YKcJN+K4EmkJAPD12NpMAXFGSvKFmWVrPi/ifgniXQo+sns7qqZCLBh3ZfFnAnZGNef5nyg3VLJtSAo+xlPfvC8GcLrjruFYbTEEol3Ek5AjxDYa5hCkIcgzq/o7bWDnNJdxrWxMRgsyq57wTNF2UfPfkU55ocqJ9QnjIZmkmzYWa/H9T+yvf9XqSOv8i9nB9UxHneky7zZUr2Nyeuzi78Y7L45WOxv0WPbWWZUovsjr+fnsXv1WjOzKCI6d5OsZHDe4JccqI0T63oukro+FcMt0cwvatcuPpQmr/9CdleMCi3RVIPIbTEeRC6cwETjeMSkghkVUqs9WG/rlMvr3IxMQ32YYhE/ltm1y1min1P+d2TVQnF6CQshZZ1tYuR7LfWvEMfgljhgK3Kyv9RHO+xOY1xjSO2XuE2cm4rkxT5MZg2qwLvc/6jkHo6dCiC09fyghtoH1n35kuMcRx1WsU2gK9T+hM8Av6L322JHnuYPc+cNeuSDLy6CRaVAmBUiq37W7c6Rz+RKZe61fhfLktzNCoJB13I4qqY5UZz3OlyAtfe577ArdYiusApDSOMg1tlg7WxiWDIsyW/xzk3oRgmspxD0EO4/3Hlxb4A1xUmkOU7ejX1TR3G0T12Mb/ejmM8r3XAOAiDKvrG31Xe9aWvgScPKo5bdLd57rADmhL1U+DXY5l5Cp2pJ55eijcCp4tfSsjGHYwK0P09Ds8qh1po8WC8cT3rywdmhT+W+KjfCUzqf/1AsH3EkOgqyyG3CaRHz8NRnJJVYzvEkREeNXEbjnevrh0J/rkNG9o0AvychtbNBRUUNxi2fjjjEkDqwpEVV4c/uAMxD+UXrdGASfXwvnLsKcvwkQFYdiFGekA65kulKmp5J2RmEhsSY/es/C/dhSiZq8bFYhnv92CEmA9dMyCBgEuJS+xz1kJd9YMV74SX7JXE2fa7B6vuDXMj+80yWMHo8pyM/4xLMi0zlclpx5libUofm4F1d3R1MosvsdCxMJMBn2IJFM03tJ1Je7I0NQGb9WBU5z48hwEQTprvDwlx1duBZSWVDYbY8UUMDjelkuiCVh/TE9s9KOTXgsB0lPIJIQWnOE1z/3j9yNACHIJego7dN8uSlawe/7c1iaxTTAG4xSa45u0jTEagUoElSKaJly6y8+PPZDOm+sKo6bEUYwq9yQsMVvaGufVUZteaaLp6sulKu6kg9CTPvjwkf1k5S6WwO1X0hObeUVVFt9BvN/4NHGcKW/B9xwjx3OR+D9sO441y3CTfrABq+aJHGQOe749HNMeSbUtuALcjNuKtFgRhl6QhG++O/+uk0UpWfSHAy3UVPdLAqJ5PfFaHN7vbk9/0skFJQ/uhDDr423wXnDqUvMwZJ0pSGTpLIYVJmIXEvT9teydSGXQYHbFiD0pGxzQbWwAhN74KYow2q8IQS+LkHCblrt3xQMHoYeY+sMKqG7TLM4W7Ae0iJvDR+k1TzKX7XsQHga0UNsfF+5N9rzwmS22rEKlGxc7yTeh6LR8AACXbd9j1Ap/z6eDV0sRPS4McBRiBTeqi6jLNXzeksKR/8SyLRvvmKjqhpx6usYJEL6kf9ONEnPj7gk6nL8l8WnPI+nwTP1TLmlgfwOsG2kQCmXrCqv7tx+21T+tYGMHbNRep4MEFcAgGZ2AAdx6CmuqFfWQUQ+kTY99yl/sSZ2EahfqJTW4P68xJtCsKBvKYBVzqUhQLOLIC7TNkYMj69rs9+AXH7tzB4QEx39xzJJ0cU0htIN7m7/HgvrSDj9OzDBo7g/o8kJvyAfcLGrwcVaszF//2pdhEhwvYDo5WVVNK8D2d7GbAVUudHQtE6jD8GU/vRmexD2f2qJR3hX+upYnsOhxafx2jffPGNt1aSbfYnCQRahljfTg+nPE+kFdVcCWEEgSurGb1APoHy+GhlxHN3M0Qzhvh8w3Sm1kUI9zmuxeV2pNXiF7e0tuu42XBBioHqML4B4jE8VTrIwMi9PXKhYOI5LWHTF3Og5l4xg5Bh1d6mWNJhGqU5KMlcZG8qi1ow/YfzRZUYpNHagnoz22OMngu6IKdrzCHtEj/3Dpx2erv++1T7foKIrmcKDWO2Kubw3floPpbJ+c0hCCkyAgzJj7jR7ogj4IGRIfFDrPAfskuWHQ+bXcDiGj6WS+v/Ovq/OP8vQdMm8nNKpLg5btDVGGHCFqnugKqkNjpBEk4bd4o0g/UhJXWnEj7LHtOn3Av0EOcrUwr4GhwZ1Snp6jz2v46OZaJaIjmTZNoT3QaJMkeNqs9rfkYy7gGrj+UqCwANMCVEn2kzKdY1KyWUxCJFLVi+qCK+NVAsAHoCiHT/YO8kDsZe8qOXKcu3xL+bsg4POtbjUAoKD0A/EP33kafETljHgcHd+KssEYXtGeXkW6qZ1M8h+/4CCA9ti3QQbtSio3vRE36+KPRz/yfD+C6PcJmH9fJhMvv31RdAz8svQIGDe8hCSKMz+xwokJxeCKgCaabx1C8zpzSWavPpe5YR9WHvl1NYESw4azn7h0XnwrYL6D00fMFIh1qTleC2srKH+UWCCnZby8vWs8Gj6VB0aJdHQ784WKpQoLkTCABV7GNgaGRAw26dL4cl/LlymI12DE6K24SCi80qTZrJdqSFNZEfM1AZakJIyLhdJwda24FW9KlFesW+/3R79c8n9BI2xEGRTZS3Qd3APPTnzvtXq0NpaU+iTjmvWfu5RTrazndBvpfU5JPsa84GfMPOkEyOB2qrir6bKKiSoX9Vz5+h0e2t6wAIl2T6dtcoamOJGXZDshgMwVjXjx7uwCs9FwrsFa1lbIm6ZrkGyVLJ2KLtazsxKazGhBu/qHLkIQ41VJXThWBA3JZVToGj1Pnb7ZNjbRX30T8HRG7Np0AjIJkzlR/baYR4egwQ575ZiLCPPVgrVjnU97y5SiOvKXLCFr3LdRTzEvvP164jEbTatAlLQvD9pnglCUMmX7kq7Z69hAu3BZwwJZMm/pybRyBbEsvpKa8ll8X6+QGZH7LOOHeGXwTBxgCPwjKK8NcaiDFwMb0gwy1snhq8qZPOmP9pIlkMD5d0UOUVmUGDxF+m3xIRwBDyS0tav5+K6zPanmpROXmi3nb8Qr50flyZxIlLpsKKn++c471S453zPlYw0tCm5h6WjTC0ID1Jb9fTYlsah2VgDnlyu/z4wMTDyj3Ha6X6ZxZ2ByOAGL2hECfOPtdhzf37sF3DyudiH5Z9AGU1xOQbZtpebVhBqUvxcqdHnATYcCHflYwpiLoMinb4aXqgbDc1ph7KNDHq20Y7V+pIA8ofhXmkbzq8q75qmUvJPet4DjZCgIaGeZllN+LgzCTBwlC1euL4qmDvHKIwHe7dU/Mpw1FqLE/jqAOJdjbZLYP0a1NB+yEmRFhBPq1ivdexLHQUwOzZpwJxoC2ZSEZt7jBmKiP6OeS4zemvH2Eq3+IR+AzmcAApk8jWsAX+Ja3anlj+FkNwuL/vh9e1oWgTiQ4Hqt/BCnqpmtEa89uxxHrwoj+l/BOCgzA7OJfLnpagHtr4PKkaQX2FGyO5tYoT5PrRRZGDZRLxJ1QoXuqnEbshapeASnbQLTG6jCZx7paM/jUhpfMdII5eFMSN56Tbxl/IVV0T3owKRcHmx6glaXj3qQyTFwJKpgjX2s+hPpj5PMinbHVtElHv1vun5rjIs7gSvPiVTOB5IORRbDGIYYaXefj+hNQZ4hw+zzapfqdpnnerQ79aad9rgTIOyGNoDDpeCoW/icTNI7fErOQRd3wnRv9UhNE1KPv4W/oAMilPiVCKLSEw0zpzE7Ctj/JTzzvL7yXM8YclgMToPb1HPJQMmJbxoQAAvT6ZVEVada2UNeP+AwUDXtM5GE6Vl1vnopqBBuxVQUaOBAnFOtMnXTy2vUvl5nq49Oyu9+usFHPv8ozMsmAiI4A+Klw/x/BFDAe3fjkLj/HK50X+LD+8PkaEFF+qGZcU2TZwAcwL0OD9VEbW2C62qcj0yYBelH8GHdRgAAAAAAAAAAAAAAAAAAAAAAAAAAAAAAAAAAAAAAAAAAAABFWElGugAAAEV4aWYAAElJKgAIAAAABgASAQMAAQAAAAEAAAAaAQUAAQAAAFYAAAAbAQUAAQAAAF4AAAAoAQMAAQAAAAIAAAATAgMAAQAAAAEAAABphwQAAQAAAGYAAAAAAAAASAAAAAEAAABIAAAAAQAAAAYAAJAHAAQAAAAwMjEwAZEHAAQAAAABAgMAAKAHAAQAAAAwMTAwAaADAAEAAAD//wAAAqAEAAEAAABcAwAAA6AEAAEAAABcAwAAAAAAAA==;" vertex="1" parent="1">
          <mxGeometry x="386.57" y="170" width="100" height="100" as="geometry" />
        </mxCell>
        <mxCell id="z0f8_SjItQ-B4fkTCba1-6" value="" style="shape=image;verticalLabelPosition=bottom;labelBackgroundColor=default;verticalAlign=top;aspect=fixed;imageAspect=0;image=data:image/webp,UklGRmo9AABXRUJQVlA4WAoAAAAYAAAAWwMAFAEAQUxQSMQfAAAB8Mf//yop/f/dn89zzixL79IdYiuKIHbQYOsrVF52vsQXdvdLUbG7W9/GC2z0JWUHrWDRzSpdsrAz55zH/Y+d3XmeMzPPcWff788nIiYA/9///4/oqmXPQWeMvP6u0aNHj777mgtPHbBr4/ohrY+++a1Zm2lw47cvXNm/SX2O9qe/vJTCKIM5Tx3TuF5Gl2umURjHqonnlEHVq2hy7lcijO+OMYOg60vofq9uE8b9x9MTqj5E69uWUpiNC/8CXd9hr1eqhFn7zT7Q9Rl6vCnCbN5+DZx6C22e9oXZPqlcqXoJpTdsFebAX3eDrn+gT11KYU5cPRS6vsGhUynMjcLKkXDqFXQfS2EOTY2GW3+g0agdwtyaug9uPQH99xXMnbI9DVMPwK0X0O59Sg6h7JBq9B+CW/yn/rZemGPFr0b/EbjFfg1fYMjcG1Zj6n64xX2tv6IwVwu3Xw23mG/3RSLM3cItw+EU7+2xVpjThWt6QxfrdaoQ5vyfy7Qqzms0hSYk1/ATuEV57j0MmQerboVbjHcQQ+ZB4ZqDoIvvSr6mGJDcQ3IG3OK7oxky84A5WLj9KrjFdonxFAO5Wbi4XKsiu10YMvNkbiKr/g23uE5faSRXC+dpVxXVlX5LySN/XACniE4du4DCfPoNEsVzJU9RmE+Fv+8NXSxX+gGFeTZ5B9wiOedZCvPubHjFcepkhsy3wt/3gS6KK18bMg9VXgm3GE7fyDxE8mMkiuEaVgjzsHBpA0cVv6mTmafWHQ5d/OZ9kK8qr4Rb/NawUpin34JX/HYkw/wk/BWJojf9b0q+WtFSq2I3d0z+WnsodLFb4ifmaeHWc+EUu5WmwjxFpu6FW+zWgfmLb8IrduuZz75Botjt8PwlXFD0ps6l5K9lTbUqbuu9WZi/KrpDF7UNqxTmsdW9i9rUP3xhPls/CE7xmh5JYV7fcR3cojV9DYV5Xbhyb+giNX0jhXl/ZR/oojR9PYV5X7h0b+giNDWCQiuc3x26+OxvFFriT+2UKjYbFgitcWpjrYrLev4htMiP4BaVtVkqtEl5Hl4RWYNvaJXCHTfALRrTL1CsgsJ1Q+EUiakzKbRM4YL2ShWH9UoKLfQzuKoYrPkioY36D8ErAnNeppUI1x8Np/jrWAqtVPhzU62KvdqvF1rr/8D7U0v3GjZgYOQDBpRB5STdcvd+h+zUqOBxPqC1CDefBvfPK4WS8QwYtYTBkXByjsbgZ1aRpIRTb+1a2BxPobUK5zbRqs5J44CvWcsweKVDAdNspdBm5Wl4dUzKwRMBpRYU2TK0YNFP0GqEvx8Op05JqbIJzFSC8CxdoOxPoeV+BS9HKOwz+fUx2fnWR3c2h/qTSDlqAg36PKEwcb6g5Qq3XAA3N2gM4Q5mZ8Cp7aD/JPLwIk1KuK1vQfJXiuVQ+HOpo+qMXPxjA8UAA45vBVVwlCwW2k/yDnh1RcrFNxQaTfJEFJzqX7QfChe3h/6Tyj3nkbtGp7131EKGecDF6RtNBZzUGqrAaLBCaEPBg/D+lKq1cvAh/TyQwOs0LT53LzTUJbQhCpd2hq4TUo7zI0NDTPI0FJilFbRiYfAgvDohjb2XUkyleFcpVCGhLqYlC5e0U7ouyEG/CnM+n2taWDjz7anqdnjZBzQ9sFfvWu95M5PGQv48uNf+vWvcr+9uHgrcfOHiL2vNBXyvRWFxPK1Z+IvrqByQqcLprDIWcHpbaBTQ+cLB0avN+Xy9rKDQn9vU1gvh1gkdsCKKhxsVFL0o1kThd/DqgDS6LDSX4rUeCkj1JC1auLo/nLofJPCFuSQPQSHZcLNNkXweiTogD3ckKWZCLu4CVUCcTqsWLmyiVd2Pxt5LTaU4qkEhoT+3rS0XwK37QQJPCI1KuGFnKBSOnSlWRXIiEnVAGu1+oZhI8SKNAlJdQcsWLu0CXfcDB4evomTm85mmUAWE/s6+/hgJtw4ILs7dRMkk4OTWUCggO1Asi+QEJOqC4KDfMkrtAo5pAYUCUl1C6xYu7QhdFwSNHh+xtiKbL0mgsNT/tbFNZ8CtEwIcHPnfVDrh6vtaodBsuN2+SL6MRB0RoND0xH8/895bj17dx0XhOZgWLvwZnqorKmzV/XZWcQCcYig9y84qr4JbDNUkEAsj+R8kiqEG0MqFP8MrglI32tqKPaBtqbzb7n0OHnLYvnt0aZ5HmnXec/8j+/Xdp73z50BZt716D+jfZ+/2Omc4LXft3fvggQP79urevsyJQI+ztU1nwLWeZkdc/uLkudsorHnLTx8/dt7uTm5ze13z6ncbmF5YtWTczf0bQxVqyjnwhtenb2LNVQveu+7IRFZ1O+mGZyfM3cQMqxZ+/uqdFx3Ts5GBlbaWuheexSg0Ourp+QHNCrd8emVXqDg4bXt06x75Tl1KoWpQ8I4du5bCTIWb3hlWApW7FNr16B51t53aOjWojj26x9EzoTrt1D36bt3d2ijv1Hc30+Sm1wY7WeEceNPkTYw2XPTu7X/bzalNOcXKSH6IhK0olJ74360URhrOvqwddEQa7T+iz6hD/jYYbhqN1lcvo9BsyAXnNYLKVSWYwIAR+xzXBgqA0g3mMGTUEqR2gcpEOd4iCqMWP+wAlUah3S2raVr401le3PSAlzYxrjtm1eIIWrrwJ1tR6HL3KoaMXLj12V2hc4hS6uzfGNJ8wDn9oAoorUduYpTCGfvHSTW5aiVjXZP6l70taQttIRodnk1RGEth+Hpn6FzhYO8vKIxUQt7VAKpAUthvFqMOeb0XF1Vy3QbGvBZP2NvqI+BYh0Lz27dQGFvhxqtKoHKCg79UMGTUPt/tAF0QaZy6mdGHfLtpLBT6zWXsa9L/tbfNp8O1DYXDf2XAWIecsg+cHKBxRRWF0fv8qDN0AeTgziTjGPK/jWOgcHvALPrV3nZcD88uFEpvDUQY85BrT4OTdSW4nhTGMcW3W0MXPC4e8RnPkGMbRKYajGM21mKbrZHyJBJWodHxffo0KFz92NHdGyTaHXjNLEpmFPIuKJVVQ4DLfArjmeIoBVXo4PYU4xrwWjci7Y2n8fDbBy8auHOnMq9Ru133P/ryF+YZaUOxNo5DiU1o7DmVATMXVt7ZCAoAFHDUrwwyogjvg1LZdDT+uZ0hYyoh/wGnsOmMK7YzvgGPiEbjHTH13fByZNz5sp8y621vwhlWoXHwYgbMPOSqE+CiRo22b9PPiCJ8EEoZKR81ZfyktBM/X0MxtfagXssYMLY+p+wBnWs8jJ42YdKkSZM+/fi3WghnfjKpluO/vKOshsQz306clHby+K2UODmvfDVxUtrJ4yvNsV2fjYyx8KcmUShc4dPsL4NgVg35MZMhtHbhj/CUNTjo/SsDZh5y3SnwUEuNDh/Sz4gS8k44KrNaazQby5Sp5We8QZ81pzZv9qNhijcDKsfU7OK09ZR0Pm8ugUK0ysMPDONT+wQWUgwF3PMH1ja1aaNEw4CXOOYU9vqDJoVjmsK4c0OqdsNtbm6pYw0au0+hz8xFeCc81NrB4csYZERh1YVws0S4dG7I6iGXPXJcJxfwWhwxekEEAef3hZObXFz5B4XVJeBFCpHnJHLbzKo0wkUPDOugAK/14IeWRSDhmjJzGp/QpPATF1H231IbNdLmFrWHtgSNDu/Tp8GAX3aErp3SuIGpzBhy+VC42VFzyIXDPSikVQpnVDA0xCSvhlK5yMXdKQqrS5g8GTHMUemFc0/UqFk7F242xoDna1MKA6rMbGiDaA/aXpvbbG75nraggNuYokEhr0cCGTroPYdBZvQ5uTN0FknAZ5pDo5YOen3PwJDPb3eDzj3KwbOksHrIDYOR3wI+0BC1Vui50phwTmNTGh/SpPBeHRGG1+YBm6s4GI4daPxVQjERcFZPOJko4D4mDUjAu+GorJGAdwIKtXYxbDlDMxLwL3BzjlKlY1ljyGUHQOU1nyNdZKgxeKsp+uxpSrWvNBKyJyJ/qxaP29xvR1iCg56zGdCkz1fhqkzg4u8UyYwhK46BmzUpPuFCIUMP95tikvc7UDlGo9VkSrqA3+8BhXzm8/YEMnbxhpgKOcozo3C5b6hhdJ131PSsza0ebAcKuJ1JmhQGlyGBjB3sO4uBAfp8twl0lvj8ejc4yNTFYfMYmPH5zW7QuUWjxwwK0/qc2AkK+SzktObIXGH/zaaEsxub0RhHo/JbSXR4tqaXbW7N0Xbg4Mj1DI2EXDYUbmYaZa8zZUJYdQ687BDhuXCRsVJqLH0zIbcOhptTHPSdx5Bpfb7WEgp5LcXDYNLDr6bos52p9dnTp6Y3bW7diVag0OQZpmg04JQecDJTCqOYNEGf7zWDzooU328DnRkSuIOhGGGS/4STS1wcs5Ih0/p8oDEU8lrAd5oacfB0YCrgSUaU2nmHmTDVIAY1q7dsbv1f4FqAg0GVDM34fEcplRk8nM+UEWHV2fCyQQJeDBcGPfx9HUNT9ztQucPFORsorC4+r/OgkN9SHAyjGqdsMxXyTs8IhiUNsVecXrW5tcfCyX8KejSTNBvwUZTAoItj/mBogim+VQKVBQF/3B+OCQf7/cDATIpj20DnDBfXVVJYXQKeDyjkN5Flrc0o1WOjuXdLTWj8yzcjvEXF6HmbWz3EBhz0mc/AjJBXIWHCQZ+fGBgJuWwI3CxI8YUSKBMaHT+nbybg9L3g5Ajl4v6AwuoSVv0dsc5RAR8pNQMnsdaUyLzGZm4JzFA2NIvREzb3ez8b0LiYSZr64xx4JjR6fEbfCH3eCS8rLocHkwqJd02FXHVYrlBaPUcKq4dcPxgWkOLxMOxhiSkGfjMz9xjjG058HrK5ikMsQKPVW0wZCvn7CXDNtH2PKVOfdYGOXchNx8E14+IFpkxVDoObE5Rq9A5rDLm4L5QVdIUy4+JLYz7bmnk8NEThi6WxucPmVuwLnfccHLCSobGFR5hRaPySqZCbT4EXu4Df7wfHCErwuCkJ+NfcoNHmU0q6gDN3h0L+Ey5sZe7dCHqaecQYyZ+GxeVym1vc2QrOYJKGA87uCccMHmLSDH3enQU+x3eGNvUgfTNM8syc4GDXmRSm9flJJyhYQMgJzWHYxetiKuBAM6ODCMhvz2oYB5xhc/OaaJXvFBo9wZS5rztCG9G4NYL3m0PHLcVXGkKZGs3AUBXPywUODp7PkGl9vtICCjYQ8OmG5l4IzR1n5lo/EnLL2LPbRne0zf0EL+9p9PicvrlPW5iBh8tYZSjg/CPgxi3Je6ENJXA7QzF1UQ5wcXwFQ6ZN8bEmULACn9d4phw8Hpj7uzKg8I9URCTl58dOLIvmQHsL+QNKkO8cHLKaoSmfE5sau4hJQ0L+C4n4XQUPpm6iGLsUTra5OH8jhekDftUN2g5S/BvMPeCbO93MQVXRVQ9n3ndUE3NdKLZGTrQAFycxJeY+KTV2AVOGmOID8GImAc+P4MYIroTOMhc3bKew5hQfbwJlCYdFcF8E52oD0A22xaO6/92ofp4Zz7e4F5DIdwq4klU095ELZegc+mJsTClUzIRn5SHl4MGQwtqmOAJQNpBkn9yBGfGpvuXtc9sZ0Eto6cLkbfDyX8mDTEbwPpSpM80FnLIHnJgxGJ5/lHZeJoW1ltAfYgt75JDbgliRlFmj+mT0mb1tPQ9uvtNo9TpTEbwDbeofDEyFXHU03HiF3P43uHlGoekHzDzggr2graAbVI5Q6LkjbtXn3dy1VupFe1s7FE7+6zaJfgRj4JhxcQpDU8LwQnhx23x8vvHQ8UtKZvT5Tluo/Jdip5wBja+ygQw/Gqprca29Le8One8c7PMTA2MBJ+3Zt09vk327XytiLOBNSMRtzbB8gz1mM6TJFG/1oPKez465Q+G4ZFaQ/KUmHGVvv8JT+e/AlQyNZWmSD8OL22+D88sAHLGAIY2Kz1MR75wkftghd0Dji2xhLTpR7IycjBLkv0PX5poUX4VSNsM+/dYwpOGQGw+GKiSU2nVL1umNtHJh+DgSFnDkllzj86OW0BbDTW8todB4wO+6QhcQULgwlXVf2NrWEXAtYGCV5Jyvd4ZjL9Gn+FgTqAICGg+EWaZG21pFX2gLGMpQckvAmfvYHFP8J2JsQ9B4KMwunGBr85SrLGBImHt+PtDqJAgGQxUSULiiKrvaUGyM/C9KYAEDtjPMNYv6w7U4hly4J3QhAYVDF2eVXkgLF1bdBs8Gjtica0JWHGNBAb95ZBXFDH2+0waqkABUw/uTWaResLO1Q+HYwCFrIgg59457Rsf+7ntv2Rvadnx+tgseIcUMU7zFgyooAPQYE2YNTraz+SWOsoG+yyLwORaOQo60C59vtIarPjQmPk9GTG0K2P3ZHdnSIhT7It9DAvlPY89ZDCJ4B7oQ8floEyiNrt8zNMOQmw6EKjiA8hGzskNPoXULt10K1wq6jKcfwXuFiPi8yYMCXByziqEZBpy5E3ThAaDzue9tj5+6zcZW7g1tAQrlrzAVwYdaFRwS8p+AAgAPN1RRzDDFp5pCFSIAGh731LyYYV+KfU1BAlaQuI/JCMY3gi4wxOcZqFG5eIXGU7wYUIVJ9fbDn1sYJz2Pli2suhWeDUDhUlYZC/hFm8IjDI6Ekw4azb5kaEiCcGghU73TaS8siYu6075W9Ya2Ahcn0BdzU7vDKWTgYP/5DM0w5JK9oAua6l3OHbMpDtiPYltTkYAVODiogqG5OfsWOPBw7iaKGfp8vy1UoQPAOfzpTdHpubRq4Y6b4dmBxk6f0TcVctkguIUNPDxIihmmeHsJVOEDoMHp86JS19jWsp2g7UCh4WNMmds4HF6Boxx8YExSHI6oCwXAOXNjNGjnWxX5IRKwAzg4nUlTwvByJAocaHSZxdAMQ9lyAJTNKdVv0MCBAwcOGNwqMqDr99Ho92xKuPFUuPZw4CqGhhjwYZTEQKPbC79Mm5l2+uzJ/eFaFVwcXcHQDANO7QplcdqpZPWQF+jo0HpZJDjGrn52XGULGq3HMGXK5xhoFZ2LIWsYMm3AKbvDsSt4uLGKYoYpPtUMyv6E97sxwIAwEmeePQmr/g0PtgCFkUyaCvhNVzjReRjBlKRL8UVoZVnKxWukmGGKFwOqAPi8JA74MhJ1sU0taQ9tDw76LmJgKOTKY+BGpoBHmGRaEV6GBCwLGk2/ZmhIAhlcADBMNonFxRIFGm+0JvI5JGAPCt4DTBoS8gYkInOw21f00wWc0xeOdcFBnwUMzTDk0j2h7I/DYrFHGIkabUvCij7QFgEHR4UiZuhzLLSKysNwiqRL8XloZV/wcN4mihn6/KAtlO0JX/DiUBpEgtaVlkSORQI2oVD2MlOGQv56MNyIFBo8xxTThtxxNjxYGDw8RIoZpvjvEijLY7ijdQwU/ohG3U+xIeFvB0JbBRwMrmRoRoS3IRGRi6HrGKbz+XEraCtTDsYZkxRPgXGL4vU6DtujQetKKyLHIgG7UPDuZ9IMA37REToShdIXmGJaEV4GD1YGjY6zGJqhyNaDoSyP4R+to0PrMCJ1P8V+hBUHQFsGHPRdxMCMkNciEYmDsymSzufEDtCWBhdHr2JohgFndIO2POFLbnQHR4UWmy2IfB0J2AY0zmAgRhhw1t5wInDQ92cGTCvccQ482Bo8XL+DYoYpPtccyu4Y8hQV2d0SlbqGYjvCZd2g7UOh5EGmzDDga1DKmEbnT+gzvc/XXCh7Uy5eIcUMUxwJKLujJA+Jqvk6RoWGS21HmLobHuwDGj0+p29GyDvgKEMa7d+nz/QB5/SFA3uDUk2+ZGhIAg6FUaui/NEvorGMDn+n2A3Jbw6EthA42O8XBkYolNvhKCMae33LgOmFVefBg83BwX4LGJphyOV7QVseJTlSR3GrxMH5lLYrrLwGroXAweGrGBqhCN9oCZ2Zgr5gHUOmF+EoaJWZblxelrZF0y7v0ze1+i+qVVn18obpVOPysuptMMpYkje5LcrSl5fW1Li8LG15y4bjGRg7VrUsS9vUqclrVl5WVlbW2rl8C8UMfX60S8PysrKysvIGUE3Ly9KWty79MYL9E+Vl6Vs4NTUrL0vf2ltsTvYoLS9L21Cla1aWtmXpYxGMbNGsrMZSYxRO2NVY6f8wU0PoUSWWQ+GOm+BaCDQGrGJohAxZcWECqnYKzlEzGLLmgE8pKGSq0f4j+oxvkk9oKGi0m0if8U3yXgcKUCgZz4DxDfjrntDVXPRfxpBxTfL6hDeHIeNcxZ5QAJTjLaIwvgHvKanmqt8Z55CjXGOkpF7a00ji4grGRN9EsRwK1x0Hx0Kgsd8cBmZIYcV9vRNQNXm97ljEkLUM+UIpFOo8qk+/prdTu9Kjn11Ng6ZQ+iutVzgNrrIQaHQbT98QSeGmz5++6V/njbjhvpe+3kJhbUX4kIZC3QjJyumv3nPlBRdccPWtD368KKRZY+gbiP1svRiujUCh5NokxVSUwm2XQinUncTSnL6FYjkUfgvPSgCFg+YwiFvI2YfAgdG6KCS+pf2sGQwn1wBn5AQolI6oYBgn4carS6BQZ4ZdK8VySL6JRO45L5IpLWIDKDS7cS3DuAg33tcBGqb/7FPqmV/DbFkdBf5KsRzh4lZK5ZwRkXzTOEaAQqOTv6XEQTj30lbQMP9nX/Vmg24aty52wcSzGkSiH6PYztaL4OYWBVwayRcJpWKUdrebpqQo0YS/jO4FhUg1Wj08f9rM+E5dcm26lk/MnzYzvlMWX1KD99iCaTPjO3322O7pHOw/7qcZM+M6ZcHZnvvm3Okz4/zdkp1rcN//ecbM+E7/cWSimqMmzJkZ4xk/jHBqlbbHP+75eInEZf07F7ZC1A2m0HonIpFzrmYygk/hxA4KLU9+5KvNFBPCbd89flpHKNSlNup9xt0fzt0WyZbvnhmxr0Ycu6wRuxEu3wU6x+gbI/kEXvzSOz2OHzHqpUlTZ89fvnH1osU/f/Xu83ddOKibhzrbprsPPOOGR8d8MOm7mQuXbly3ePGimZ+/9+IDV/39wHYK8e27Qyyn8iq4Oca7LZL/oARFpSdTbIbkZCRyTMP7mDIl5OPFJupGis0Il3aEzi3lL0cR3IxEcQn0QxSr2XI+3NzSfhx9cxvPhldkAucVir2QHINELtHYaQoDUyEXHAyn2AQNxlHsRfgrXJVT9lxoLuCUFtBFJ2j0CcVifj8UTpyaHbhf7+r792wOZab3RobmxiGBItSSsRR72X4dvPgoHMUqkhRuOAOuCQf9mRRDQo4qTkHJWxRLIfkiElmx/Vp4JoALWEXDIVcMg1uUgpKXKdYyGSVZwYeRMKDQ6GGmTAX8pil0cQqcURQ7Ef6QFRR+jBIDGp0m0DdFPoUSFKt6kymWMjM7Qs5uqrSJXqsZGgq5bBDcohX9b2v5LjuEqwbCzUzhZFbRcMCP4arilUsthZyQLXwUiYwUWrzClCHhpvPgoWhVnWEr8jQS2cCQP7SEzkTj0CAUQyE/hqOKV3AsQxsRVl4DLyuEwV1IZKDQ8jWmaDbkbyfCRRHrobay/gQ4WUHhigFwaqWAi5miWSGfhodi1r1sZXErpbKDwgUHwqmFAs5nIIZCftEMuqilh618hQSyhML1Izyl0im0e5EBDYdcdBhcFLV2thJh8k54WVN9yS2HNYACWh796lYKDYesOAEuilvbWsrKfaCziqRsWbp0M4XmQ645BR6KXMuthJyIBLItcuHCAXBR7NrYRoSbzoCb6/hRO2gUvTawEfJzeMhpwrUXwEERbMk2sQ7h6n5wYgU0PPHdPyixEW66oxUUimKW5yl/w8YNmw0Jg0fhIf5Nh39cJRKPpZeWQaE4NjGd+daf/ugpPVtrKDR/m4EJ8j9wVRYAKD/1qbmUqCoePlApFM06T1Pyym+3dIZCjXtsDSUjYfJ+5SCL2wx/+uekqXDp6xfurhSKavsxzB/CijZKobaHbw4lA1nyYE9oZHtJz1Oue3b89KWbqkju2LB+4XfvPnvbab0aQaHo1nmYkkdWJJzaQbU+/Pz7/zPu8x8WLZj+2Yu3ntAZCsXlavgSSp4g34GHYvuSc6dQ8sP4lkoV3QHY49ENuW/HG0OgUaRf+s+llNy0ZcZXCynkeHgo4vfOXUjJNf4PX80NWDmVIYOnivsA94y5lNyy/TsKWbWQwqpb4Bb3Ac4pP1JySeW31aQqIJN3Ff8B6vjplFzD5FIyeKw+AKD6fxBIrtg+NU3lNJJj4NUHAND1gd9zxI6ZabZ9zZBzkKgnALgDn9+YC6p+SrPjZ4Zc0cBR9QUAOL0vf/c3ybLkwjSy3SfXHQRdjyBtSY8j//b3M48ZwSA7UsvTsGoeWXkpnPoGNTbfHEpW+L+n2/YtyTfg1VNo8AbDrAg2Mu22rxlyXr0FdTqDrAi3pds+myF/3xm6fgLaZ4mk0vlrKNx6Opx6Co2+oWQDGaZhsIn074dbT8G9kWFWhFvTVS0kOQlePQX0op8V/m+UattnM+QiJOorNFkhkg3JRekqpzHkCs9R9RRKnmGYDVW/1DCVISvaqfoKOIFBNuyYnW7bDIZc2cSpt9AqyJ5g7tR1FOEyeKivWPoJJQv87z/7avZWCqt/WI/BGckgC2or3DgEut4CetDPKu64Bi7qLzaaRcmm7wdCox6jexODbJEFjxymFOo37k0/KyrvHtoaCvUeG88ViZ/w95ZaoR6kdzfDrGhbPwJ96WfD6k6qfkSTxSJZsH5f6HoR7m0MsmDzcXDqRWA3+rEjKy+uL9H4C0rchBsPg64foc9lEDdyDDzUk2ybit+nDbWqL+H+bdwf8do+ytWoT1ky+KGZlXFZensXKNS7dPcYfs8HM1aHxlKrpr335I3Ht4VCPc5El0OGnnzepTfeM7r63ddfff45fxncp2tj/H/////eAlZQOCC+HAAA0J0AnQEqXAMVAT51OplJpKOiISHzCMiQDolnbuF1/A04v9+nKf5TzzLh/ovxZyh1o+bFzt/ufuW+Zvo8/r3qE/r300PMp+1nq3+m3+zf6n2AP55/jut69Az+Tf5n03P3g+HD+1f9v9t/ag//+sP+iP8N6TPDf9l0cXqz3S5RT2334/W+vfsl4AX5B/Q/8/vcoAv0T+z/8/0iZnHif2AP1p/2nHa/h/UE/mn+J9G/QN9b+wl+wP/a7Af7tey9+6IddZOytBHyvu+hOkpcnmNKNuTcm5Nybk3JuTcm5Nybk3JuTcm5NT+TMCQJ+shPF/TI5xmzBaZjHHktEU5UN8EfsVWILSfR2MMYYwxhjDGGMMYYwxhjDGGMMYYve6j0homGSJQMX6VWmxDPiI6Wyu2q99vFxE4LnzxcStLtcBDzcre2skxJiTEmJMSYkxJiTEmJMSYkw9JPrByCeT105AkFO5AudQJtWoTccnjn4CAomreg6RQCcS4lxLiXEuJcS4lxLiXEuJcS0NC3uYLFWeHMlMArMxRuVi9W1fpjf9Tpdcj9Oz1is/208LgJHGXzKsWiTTaJ6Elsky/rWvGdm7N2bs3Zuzdm7N2bs3ZuzdmvbaRnvcQkoI9HdsB1lcvmHvnnp6Qh34IwTua06ZwP7TZGXCGfJUqtCLAy4lxLiXEuJcS4lxLiXEuJcICKOo5768eNhspUf4WWTJC9u4lzM68v4lVZxLIylwIKwBuEdXNgxTSoA6xPRxx3Kzvop5PCj8Af4dEhm5krU/Nybk3JuTcm5Nybk3JuTcm5NyP+MP8YdWZSS0W4qFLQ+ed7bHNGyQiGtk47qWR0IcKx76CkWd6daEhpTqjACFz7VErBP8Z2bs3Zuzdm7N2bs3Zuzdm7N0x2kKM2SbqN6GXLf1MoUrB7PZFjS4r8qNQ6Sr68QrmCe0mIPma+voo3f26QmGQD3rIBppQspSucldcSwPwUeoGrkmJMSYkxJiTEmJMSYkxJiTEiKPdJmz8/nC+GraJ7uvMFzeEhKb1LQm5Tm2CBghvVL1QD+nIIu22JJMhcwpPFzwnUUVtuZePcM9j2jk5kmJMSYkxJiTEmJMSYkxJiTEmCWSeVGtw41yJOOZ7Cm+eHcuR0dilz/jwG18LbrDuKvTRYW6BgOCE4jU7W04RgyzRjxephsYe/3U2ptTam1NqbU2ptTam1NqbU2lmH7HnToVY3DjfhSN6AxVC/qxo38m7qeNWzKE9NwoDgFJNw4GC5MTgO3AyvKyrC+KWw2MMYYwxhjDGGMMYYwxhjDGGMMMR425CeDNxQPC6DG7/P/3/qwog0TEP1i/OiL5H3D1kcE5yDuwhLKyscHCdBSPun8Okyk8Wk1h1SIAbeMkRcS4lxLiXEuJcS4lxLiXEuJcRnJRT8dAykQ5VmpNzbUEN7Bzxb85Tgopb7x0FjgVxOg+vU9FoeYu3AyuzpMbGJMSYkxJiTEmJMSYkxJiTEmJLqGp2uwI62ZXYuRfwbMxWuEH/DdcKmfOUvWzwJnkR7Mh+eJcS4lxLiXEuJcS4lxLiXEuJcTL6wJkzOwSvBmfjTXzYy+eFuh4w8S4lxLiXEuJcS4lxLiXEuJcS4lwfy8dcbYSILYdCNfck9WvC6SYkxJiTEmJMSYkxJiTEmJMSYkxJiTIkcxuYzs3Zuzdm7N2bs3Zuzdm7N2bs3ZIAA/v/MHCfo++/+2H/92WSHJH4U21rsPWiyvegnhlpCd1OaDjBuU69slQI70BGTUrXAKmIZQl8qDthWh0POUxQWCYogX/CpdIf6R9kD0FuXt/CuYCAeVlWNlQVvfSLfWHqLm09Sqr5oAAYcqGZcN2PNqLGgrmiOYRUJ035OD+XvQRa4tDRdjNd4G3Fs9NoBM2my51u+Q7Okap8YxKjbInJGEl3rVFsKvDFzvirWG4wJO0UGY+vbHAPB5nIc3JrNX2P7y1P+rXw8UmB/f5oEjeEx7AWWvYg9z2HQNnsR2NO5aBIJFciSaN9pPfm5/rQtKHOzKJsb4PUtG01uAVXCeZdUSYowLy9/JSf6dOu83Q95sDeFCUJfGp5QexKitRQ+Ehi1kJzfZoXtMohkt5eELBtFVgl6r5BqJEvW0oZVOmcykA9TufiGQvdlwyRVFMKHAA4OV6Qw+0vaIA6gYjBSGj/glWm14PddD3oxqC5LxTBpZjSPM9QoFIHXW5ZOgAAed9+OTDWn4wBGUr4NRotX8euDjjwOAOseMqt3OK5y6VNBdTXIzzXSiMsfPR08kwohkIKe3NHf2WWZmSYo2z+nxsXpozKKwve30/yQA7DqprfSAtwzAmG55r5VWmUCi+NJg/Tn5rlaIm01F1a/tG+4SDeNfPRtk1kmJG5TZ459Tz4ngLXrR/nqJ6HV25dqJtDH4HYAg2bfXqxB1UIfL/m5PGariBqXX5WRopyJsvL3OoG3c1thMdayDMTw1W37VO9aI/e+t0W1Ec3WkmluM2ApucmOaOQMkwyIQvXvDZKPxJuC1YmoJWIMmK1+A6ju7ex27Vh/aNs/1mFfl0yAroK7v68T08qD8t/KWmQlTVJ/U42TltQip1ViY9zyq6CMtPsDgi31dJzxH8ZVc20Ccgh1thfOVEXLwByLa/HyhrKjoaeGABAb/EousPEDULUljD0DQQZyPIdt4vpn6Nfk3b0mBWSURj8QKaTY9Shlkhrot6V6fJ7R6apWI2ukIWZI+a9ZQ1xMsYP7tKfty2sabMpVX353hNhauBDvdwo+dVcIMp3dhYAoFa7K6xXDYS0BXVJOtjFB8P4avLroOWd+Qx/UVPlPjit8//F3zmyUnMd99TzfelbjIXviJepiTeNYbNTAqf+vy0ToZEivIn0qHjm7i4r1fvYhH/dYW5pG4tTH0j+jbBeIGalS6T1uiuD4u4hHjlNmlWZBy72KvMPfOK/IWJbU/gSeqadiiV+LK9Cnh1ofZWYOctfDsuk0g4lBIF6AAzRrHVPeUA/iPwqQpobtJ3DmOcDbhQiSuVPifEHQbpevn1wQKXq9OJgJPdUg64JDY+IFGf543VBVJirNX/2vZTapxdElI8Ci6+x58sudb5K5amBmJDqweswF7gW7kGhG8huSSMjqw4ZqGdeIB5bE8hbePgeNklHVHyQaTPuvP2U6oeCSOzHtaAJI/qAckd+7Rl9GB3LqgpqXVAvKN+8tI9dWHE0QviqavpGAefijvLZ2sahBpHsh3pAhvm/C5PYQY1+w7AThPymSOwq29CDmkfBBptuiA2VEMu/aOI3Z/xXyv0Uo9vRqdK4ZiNgzaE0WnQ3GfUNW/GXDWSUjQ/JZ8KFUCgwvdpEe7tliQ1CagLp7SMdsoaz5evIKpJlXplQlJTGZV3nj9qBaWIGYRsM+yMqoPYPKBitBq4WtOvUvRu5Ei/7WtL/BFeiVRD5H1Cs/oJe4hfGUPmr9ZMziXA6sPT64kX7PEcrsKU3WWuOuOtenbqZht+EV6xNxOaA+c21FEaP3vCAaG/dTOvI6NMvcmHbYXZO1SeC6vROGCRirnt3Hcl3wylbWrB7DUlfJjrX1Lbxe6PFDz+mXm285C8LqY1P1P3Ei6Q9PFT6jMO75OP3lARRx3ADXtnNFVJLXcZZbmZaRIvAhdzGaAEGrnCNbOrez+cAW5kalKeUhmen2O8nig8txkBPZ1RWeg/HsFhV9Mum/HPHxLRiLeagKl/DxRzKQ+fKN/c+zqr78+uRFlowFkK1Di90/fg/J8zm1RdN/9Nqh7hHrjUGYHuOWA0+TQWZlZ/Mmy9PEHTa26HjamSryPAPFYCsTCE8vGIbQvRu6Ohwrl94tfCarezS/tStQj7weMFuz2mcMZLXHrwFvFgNXdjhYLhvQUur5Vx27W558J42GcM4eLlde6u/MzE0+F6eopHWxrhNUVOuW0nrxRooj/BKWG4ARl2nyH9xW9o9eXWBQRGGxxUdDVBkg/Sff7CU8R2WW0vfibKuKjEZ/jELieh7hpcysFQRY4Y2S4oZMSrJ8nJiZOHtE1YTzf68/Ny1Gsol1fXU+Xh11m5d7fo+9aBlyxI+J810Tb6aTDNfknDa8Zd7PJ9OvRpZYKRRCGsZHF1QEeshe574K2vXN1c/1FkfD7KH5phaJgg8Scxn32tKH+SQGLrIF09inuh/+pHzyLhX3FG0W8WR1wXtdquC8HHF3CJSczs72jcKMQABTh6QDN5P2IPLfr2UPe6ABxY3JRRycUNQzyQC1u4oUBz4KdGlD+ns0+EfBGmrTr5PPJtvVvyC2RDmOB30umXFVaSrnvwFURFPB7scpvYxVdN7uoc5rtSjYLfTzocjZplGoUAyqlc5f60Sn08k4/RP3O9yE6/sxxm+sOWf++A55aKPVkSD6GMTBMWMAkDm3M0nmeR9LGw2nv3/foIaK0k9hkgUUW8Kt543Y+hoPU3HJyFZi2VNmuaOFR7DElsAJT/vTpFusPfX9RC62nf+vnWTN+rK4Z/7tpph9Fx5Z6d9P+k/YH/otsyNNeaU4fmcFAdOLLB5nE+tl5vSuHyF4XsbHZtsbkBJvk6M6qvY/101HdgNpgfM5DTwQzX4FWMN9CHxnoeUSqxa6mLsTgNS1Qv/YiG3A/LnqlMnD+b1pjs+0TVzBMLJ/bqCqla7LO5QWepH0U5uiLaJeEfyDvr259aS0J9SBbfKh1p5u/FZmE8x203xdlPWHaFxQCH+fD+mobyfnsj+hzWZw1BUy863IX8bEaTVKZuFh9vUvkMcamv3Mj7nktt4AbEFAXHlXhySDBIkXXw1pIuGUEA6CKIrwGZc2QCZD0jmV2MW9uqdMai2A0mYbyV75uOtAel5cFOdv4Nb35ETyJ3oL9GSMbYE4jlWaMR7+s3cvtBLLSv9lgKN1yYJw/TidIPtTi8y9LA326v4q0j7NKq4+o5gAS+Q5flBcKF0ZEsSpn3UE5Jyn2raiQOUEHUh+9fVouo2lsA4BsbTPUuUrwFGE1w+krSRp6BhafoibWE+ZdDtIwG1/tcKHCY8xXAdYx5Mks+PV8heNITKJJKaA4KTOm+BQF7g+Pq2UvWryHqnLe9KK9JUy76sm6A/M5b8G8JHqAU5wTBaQUG/tjHocMhrHy6QC4StiQSdVUlQylwVNwgZ5WO9cQkrrSZEWQYkW8nUO+pNGwJ0g27a2lwTUEgyEbQWhGH8BeCic2IAgvM0A7iRbbGMLAtVEDiFUk/lwo7odbAaniCTWKc2WiZXSKAsfVbyvDAeLq05KYaIc3fy61ivw5pBWw6xTY5XoDyQurafphgum39EsxSTVdjxqAP+gpzdIMsUEmE+vVVubtg87lgEyug+2l4KUk8chud5rk/MXZrzlfx++ChcxfjJoAEHCMCbKG7BQAdv58UzY8lL34H362Gg6A6GKDmGgDqXlBKjoVw5QAD+eHa6SBCPLc6UJzH4Q/DDoCAS4J4FDKyrEerV+rfVLN3/jdoI0h2t6CY7PtqKjDH0fHwa+D88SrkI/Ssasp/zvs1fwQOKlOBkFNIiyRqwLc35N3IXdgODqs8OlR+sHJoTZzzC+zlxF9etG+xuhuwx2aMbYmDuvpPjDO+f87XsgWv+M9UO2X4ZAC2AtR90eeHrhd4l7PYjLnN86/NI9DZBwgmpgmUa09gBIKADmjMrAMlhUk1rxzKtweOBUoSAkfVqJCszN5eM72NinKL+psUbg8D8/XwrC3QfxnI7LahNccRpY6lHrnMdfESbNGjYHgu6/zEqQttRbYvzfGLO1tBMy7OGEuby2sVVOY2CtMCHu0ypvVTTzZaBI7ioXkFC4/i/T1u6hjXA90X6jUI4KIETwTO2jP72imVI38PRDv4kT9fmmaBQZdsEuQ3CRzZ/8q6exXO14JfK+Zp/WUBr/L0Gy5LT7i1rUecX1+k957pyYia0QNxItrpCEiW8DXLKmUnra2/3JkRZlzyOKkIkMegrdmoYHlt9+wYmIMTgpEcfXCbE+J9WLA445Hy39yIgo5i2pSG2ZGktbnnavPJeYcqMHkVmuNfMSVh20UtTl7vnoBXjBPb3OccQomfF26rJnjfTtNvxRS6/WDrMdx9yaDILjGCIWdpkTibVOdn5tJQMfPF881khtnh1DPERJOSM5yCDtvMf5VRHgcFBMe6xpzHS0Y2S3d7Dr3b2o7ie0LyOe9IeTVyqhywWiwELcgoDD8dnuAtbWeorNcABmWINa/QP532lTe5By14QuQWqMy5fxuyeTXbawXY9HfT213G4fC7/0u1iH06FmGP2HZUN8J8U7I5qrjSCEdvUXnd4J98QGJJCl3haAXJ4S8tU7yxRVvmGUjtaNou84nw0LcW5IVhOrcjTZUwlqmPVbU0SFlcdERdxZn8TTGq9hMKmJUGgU9UWBhAwAYESCbvTOD4c3Da7IsKlJc4ndpatjQcWAnSbiXsX1dAaUL2GP11zT4FTO35CSHQBrHqtz60DtMPQIvuernYZDoF/Z4Tx/MCuATRtNYINPVOg0Mo7OFoVbi405svsvouVAmX9VYc5pPWHTmiC+gowSc1OOSshDvNiqb4y7jw39/USPC1WVCdWxYkrknR/s3wv0gzY4IixByvuNRym4ufaWBlxJzNVh+PC+aGgINaL/rG94bHINOSvjEcY9VcVgKRu5jNS4G/yUmu90ZRD8yCm5bT6ksjdFA/SNW5Kyqzz/AmFLV7VJQeC2dqJ1A3WVNWeFVusULQ79l+6hBZbjgGq/HKILyXqs6xXrmyBmJJh3Zl5nSuStVNhVCz9J/hkUfnCRnPIcN9SKy2U1oWDi/vHP2JMZhoVKYDbRlyTnFeJDTGOYgB7uRmKQ6VfrVFPgNcIVjnsE1ivIXxNbfnTlMDUGG0iQAG3lRmHHQj2lzFkTC3MMtQ5fTorFrWWS9t6AYQTNJ2nlAES3Zrlk6ipQv5mbdoiDmA8d+tJlK4j7/JCuEFSc+KnoxgQDDSvSRJH9eMKDXEhSbUrvMhykl9H9TVrWw/J5+eAgjNZ2kP3Jg5EqBENdKlIhYMBPuwYi4T7UR1IaZcCDrwAXJBzI2LM6M68plG22zBFIwheN3eKvk1LkTPBu5ls+ZobfTzuc3B+fcAMKj2yYBEtNAfxGdWjvFGq4MTJGQHvuBNDLqm6adDw2l+yaIxJvBY38KWCF6cgU2Zk3YcQ0xrEEti+9s/cd8Gd0FgTPUF360QTrBeNQw1CCF28/668NAW09iAY7/7XirvxA/uxgNh4mv4JfHAmVWegm3kI4PgoFF94oj4svuVF/h1ck9+o/NWFKOv+AHmHOpYZYjeDqS5jnp0yB5ZXhWIbMKZYuSH1xvVilrNWLtVMmqizionWvgHynhnSzdvfqPybkw/gQCNLv7ZEvXZvrbQ5eohFqq9nAsFAGq74hGt3z7prxqB5irxXD+ghbCnMBRofutC4fAPWoQ/sYhkSO2y8SEZJE2YrUkdOYYbwqLB7qVA5nvT38YyZPAn3JrgxwCOCVViYtYWV2Rn0+tVxXh70Gn8zqU1w4qHOgcgc52/Jfdoa9wy8bHRN28aafr7HrDfgWMRS0ApbQRmAAF7+0KnUNV0cyGnAJG6VzoFsXSeYWH0pHA9kCIJwP/71y0T/H5KIz4GjO/2o7YnLaZt8ElXEdBYMkAHindg77ejUon81AuCI+EgtOAq9LiHjVDjnKax7K3NlMi29/F2BycYCoSpJwotAe7oVOt/lQ9quq4EZsn5s2UhrlhAu91XVftoga00ijVGIcXp7q7ziXMWtaE/Jx17DxclhgAfDb0D4UNUMFK0DktFGQTMa1ICThb0WsJ2Hcls3pQezQ5KWkWbE6wFg+gZ4BrJTOVQoykjtBE2gnqb+1WvMrxq7ekPbVxdO00+fTarhwOVJn02MGWuaSCYb1D3mercL15lz7xAtuEPCZA+eBjmuz66WDrY5NfqX5eT73PZdwcGZfdZYe1lTxdiqHlUjt1K1GZTu7fYVHL4ftDdL7AlmDBB7pg6JUv0JY0QGDkGC0PI1buUVdGJ06nI04Z+V3BvISYal02F7IZf2o3PzarKPMVWC5Qmho3nKzSBZC3lULRq3CA4U4PdJ5sJEJLcAzU1w/PK71vZ5Bq7JB40Xj0zpN8g0f+yVD+rNIkZywbCcZik9tMdxNZBYBeBJGKfGMlOK+8sclo/jJmzrSzYEdK0zAAAV0mo9t19ROQcoDvF8LXRTR8UHtgEaeVg0xyRCZCMTxHX/9dqI+Wmd1PVlXMqobhXUYZnIwvAeVSntodMlUDqAh0vStzgEPCXg1qMNIykBVg5ajmz/lfooxXCKMEbKCyHxLb+/W4DWZRNGBaOE9Achc2CeVpCzVoez/XmfQ9XfEcI1knUUsaulOp42VwvfEIIAr9122JpYT+XmPHmrzOfGFWYpPtXzWyQXzD5zUd6wBZ4KHIaH+LKW1gyczurhxoLuQYh3OP23ZaZ2nXzHrvz9XAVcmQJSJV4rKnDsWjGz9ceg0l5OZCVGVc2v7AIUAm9FWDkEuiI6hwR2FQNysBESmVk9y62C+n/OF5EePt0+RSmz/woeW7/TTlB45h6/0Wu48ERrtUIEvZLOJii015VN+0q5hmSEqZ0vR4wC1lkHzhVV001SoL9andrcjn2oGw2pQaw13BGrdrAXu9/Km6fWz73cV+O3+h1jgIki4w5xGbp3TosJY6DmLrafALH2rf51CaVxtFM6Nc7UJ7fhD+Z6+8+6lkfPUlRPgRkhooqIIePziH174K7OmHhoO49+ql1+rfsKPljz4HrHQHydwj8AejYmzBYeRnItLSeepuKpD00n7QAAjSm+sOMgvKWoQj/K3XGojkUMbQ/CFqiWjzDH3Urxmb2e2uIPKjh9NOs4nkN+DUmuCDJI/5vedLKkFhFmOew5ZUlEszoM3NBDQCiX+Oq0IubEGI1NrtH0kII5HpiYSdf2NRWRSjWzO9ffwkp40YonwRGkjt1Hrd/DqCFpjnExUqW93QZUlkSqcyZIocxm2TAG6MwPGdC5s0QFy503aizgCWf7N+kZq9hWsfVfBualYrQguqHA4uIWb7Nink+/ObKMW2WQ7CcDnEUjyQuHdUSHhuUZKVl8YsPhy5so773JXmulFkI4OusGzkCfrV2A13IUbm5zRJ3EHn2IYRg4Bri8HNc2qBVbO4fXrfdAMS8vWfxuNtdZ4KlOnZAgAFAvvmJzd2yfZ5J+YYnYceMb0skl5vLsAAd8W4IYFrAA/aULi5m067gcYVSUBP0IqKz+Xlnm5Ws3dgHPQAgowTOkjsG6OG9/pCX7y5BEHRpB92t2kv4HHfbxkkp609nbNkNniwpiBo02KUQEHEtgrfyYXq79WXZ2p05Dhn0EehMCItsuPRoOgkVrg/Vr62xBLJmkeU3K0raM+Tnu2wztY9hVlLvQya/j8VrnsFkW8M3epqyhyixX1+oLl/AMUrn37dgAIynrfpiIwgGeyxrm5QCfydqn/dXUh6oE8OQAAKaC66eL4E33yexmnoT5bIfKv7INEFlLplUND0fUc/0Dl+0vxU/m2aNiAw54jK3CQ/hftzAQ+2g2ceiUdaNo1NmpM8sC/0/7UFGx1LZ0SViwcxXfrGR4jIBPXmGrhIytYaOFbMOF/D3GFdSWmDIqR/yABVy48EPjMm4E9HNHJoqCTFN2IkXNP4Kp8i6NLeg+DfIlkAAAnAFKdBRTDulxzcsAOz6vgo6gT+0XouTpWKHnpF2xZPyg4ehTPrtAI+Z0cDRkjb1cgD+IPTOuA0ZtMcSg+MCdfzM4eNLnqSsT5/z+pbXZna7T5VjSId8oc7Ssr98pDPwx3kLPT8AmPJFHPcSmW7A4sMtBH73QvLFYkQAAAAAAAAABFWElGugAAAEV4aWYAAElJKgAIAAAABgASAQMAAQAAAAEAAAAaAQUAAQAAAFYAAAAbAQUAAQAAAF4AAAAoAQMAAQAAAAIAAAATAgMAAQAAAAEAAABphwQAAQAAAGYAAAAAAAAASAAAAAEAAABIAAAAAQAAAAYAAJAHAAQAAAAwMjEwAZEHAAQAAAABAgMAAKAHAAQAAAAwMTAwAaADAAEAAAD//wAAAqAEAAEAAABcAwAAA6AEAAEAAAAVAQAAAAAAAA==;" vertex="1" parent="1">
          <mxGeometry x="390" y="244" width="93.14" height="30" as="geometry" />
        </mxCell>
        <mxCell id="z0f8_SjItQ-B4fkTCba1-7" value="" style="endArrow=classic;html=1;rounded=0;exitX=1;exitY=0.5;exitDx=0;exitDy=0;exitPerimeter=0;" edge="1" parent="1" source="z0f8_SjItQ-B4fkTCba1-4" target="z0f8_SjItQ-B4fkTCba1-2">
          <mxGeometry width="50" height="50" relative="1" as="geometry">
            <mxPoint x="590" y="420" as="sourcePoint" />
            <mxPoint x="640" y="370" as="targetPoint" />
          </mxGeometry>
        </mxCell>
        <mxCell id="z0f8_SjItQ-B4fkTCba1-8" value="&lt;b&gt;&lt;font style=&quot;font-size: 18px;&quot;&gt;Populate IaC component configs&lt;/font&gt;&lt;/b&gt;" style="text;html=1;align=left;verticalAlign=middle;whiteSpace=wrap;rounded=0;" vertex="1" parent="1">
          <mxGeometry x="80" y="90" width="330" height="40" as="geometry" />
        </mxCell>
        <mxCell id="z0f8_SjItQ-B4fkTCba1-9" value="&lt;b&gt;&lt;font style=&quot;font-size: 14px;&quot;&gt;aws-iac&lt;/font&gt;&lt;/b&gt;&lt;div&gt;Git Repo&lt;/div&gt;" style="verticalLabelPosition=bottom;html=1;verticalAlign=top;align=center;strokeColor=none;fillColor=#00BEF2;shape=mxgraph.azure.git_repository;" vertex="1" parent="1">
          <mxGeometry x="120" y="450" width="50" height="50" as="geometry" />
        </mxCell>
        <mxCell id="z0f8_SjItQ-B4fkTCba1-10" value="" style="shape=image;verticalLabelPosition=bottom;labelBackgroundColor=default;verticalAlign=top;aspect=fixed;imageAspect=0;image=data:image/webp,UklGRsobAABXRUJQVlA4WAoAAAAIAAAAMwMALgIAVlA4IOoaAABQ2gCdASo0Ay8CPnU2mEokoqKhoZCY6JAOiWlu4XYBGyK/5DXSO9fkz/Q+nf3R7yZQn4n+WfnDqSeYB+g399/nH9w7LXmA/jn+39XH/JfpX7vv+96hP/U9P/1QPQA6VD9qvQA/////7f/pN+mv+A/tv7EeCv97/JX92O7J9F+0vnO+UOJT8b+9/47+yfuL+WnOjwC/xf+Pf3b8kf7t+1XHtgC/Mv6f/s/8F+UHlC+iX9f/gv9j7gH6yf8Dj2KAf8e/rX/R/yXu2f3P/z/ZT9jvbj9Vf+v/TfAd+t3/P/v3aP9H392w59Nybk3JuTcm5Nybk3JuTcm5Nybk3JuTcm5Nybk3JuTcm5Nybk3JuTcm5Nybk3JuTcm5Nybk2/7cQ+f3byfk/J+T8n5Pyfk/J+T8n5Pyfk/J+T4hCdL6aY2KOcXOP7U2ptTam1NqbU2ptTam1NqbU2ptTX7Vj2/O1WVvcvZcBNqbU2ptTam1NqbU2ptTam1NqbU1+1YW42s5318CziKvfB03JuTcm5Nybk3JuTcm5Nybk3JC1YZJZiCVFyGrO7goqxE/J+HLnynEwd/eMlgsRPyfk/J+T8n5Pyfk/EyrDJLgcDiqfj4r+su1lKpqDNdYrq0+EOFpMgdA6B0DoHQOgdA6B0DleTmaUEHtTNv61Cr4v/O0DzylGh+EIQPOi7AFc/J+T8n5Pyfk/J+T8n5MTPNyZ0hAr6n2bo8z2kkWPQiqWeGqOyibixitJkDoHQOgdA6B0DoHQOgdAxKKGeL4iA5WeyM9pGwlZNHprudeT8n5Pyfk/J+T8n5Pyfk/MDIPaccyLkwKDKDOr1J9py/NXfnOvJ+T8n5Pyfk/J+T8n5Pyfk/kbSQiuwevQtjREalkyPaIswBaEdRGpabU2ptTam1NqbU2ptTam1NqWfVWPd38rKcQxFu3UVCGSmTLf7c6h1f642r/7cjST8n5Pyfk/J+T8n5Pyfk/J+JlCPuwr8qlbeXb1MqSYRh/5dDLBSiXJBEEBWXn03JuTcm5Nybk3JuTcm5Nybk3BGmAL2i1h3Batj2UgJW6EWLGQcf/zhkmulqlQHQOgdA6B0DoHQOgdA6B0Dn7zUC9ZYe0R9BAIryybk3JuTcm5Nybk3JuTcm5NybkhasMkuBXPyfk/J+T8n5Pyfk/J+T8n5PyfkyO7YcraTIHQOgdA6B0DoHQOgdA6B0DoHQOV5P+FCOb2hX013OvJ+T8n5Pyfk/J+T8n5Pyfk/J+T8p4wYzlIWIdK2cD/o4DoHQOgdA6B0DoHQOgdA6B0DoHQOkJdxDMjFhV/a3BZOvJ+T8n5Pyfk/J+T8n5Pyfk/J+T8n5QGn6BPGtoljLT+4Ze6MQHQOgdA6B0DoHQOgdA6B0DoHQRcIDoHQOgdA6B0DoHQOgcsMGhSOBpElT4f/+J60HUEjN3jeH9p0m1gST5DPyfk/J+T8n5Pyfk/J+T8n5PyfBgmVtiZYRantu9Y0BLgpxpBnUQOtgx+s5knxFgJxFcaSV8X9s3D1j9T9/GCZiUA5XV8npIaFBirCkBPyfk/J+T8n5Pyfk/J+T8n5Pye/PL/U8ZNUYHjE17QUs86klh3M8Ibe1Vve61Ml2ptTam1NqbU2ptTam1NqWu723EATNsivG2HQbYvdGIDlrKW+ONTkYh9JWeHHbyqA6B0DoHQOgdA6B0DoHRpT64uw3Mcu5tPio+JGGDMogWXPRF98ZKCn9Q8pcr5uTJba+/3b4BIJ4orgOvaTHf+N8Fx5Ptp8VbPiPP6sHoGrWmFd9SBzPUOIE+2QAWIxP7KDIdHCSh5hpZkk129Fj6k1rQ3HJYXgbDBQuy+o4dNybk3JuTckJIlBq8Gj5K0qGFzBkf3/ZPySL4Z/LvWT2mKpOvqTPqAcyfPelpR0r9elNCfqs5LiADvZ0WDsVNwZ461XNVC85aVUW8qUpUvBcH4TM3v1TieVS7xpsFpfcqmgTXPkga4eWAvM8MvdGIDoHQOXN0fBRLbFwRq21REmNep6vLeunIKWQm6VzsKVhOWJPGbATsISwqDqOHTcm5Nybk3A/eR3Y2YKGnqGqRBEq06n7dp8yxUu3uFWGVTJAbP6o73PylmZTzmVwrSfUO2oNFOoUr/2rnEzixN0iizMqP73ViNzPDL3RiA6Bz9UTaJzZ2Yvr35XcaypOCI4QgYU9C7X3goLfGL3syk/8PtNcfAsH6Ep2xQbnnI7Le2moqXKvqEzgGq1MQyzRlA47Kh47dwHzQNgsAZpdJUWPyETDnsZ4Ze6MQHQOgdA6DQ8JM3IXQOgdA8m9sJO8gOgdA6B0DoHQOgdA6B0DoHQOgdA6B0DoHQOgc/IAA/v+8LABhNgABSdufwVk4mxRVU4Uufgu1N45/ZMnfWFMlSak8lcrXVldeTgAVE8HiaK0nEwvg35zb4SitnLsd1wxDBRHqWcZhasnzD7zstuRq+P/KkzI3Dp7rFC8Xc7v2wI6nTu8aAoswBQr5S6A8sTA/ckCM6MrbFPxNBWg5NgsPQ2+4+fODlNqzXm4EzrHO3LnX/5X6USChbRn71uLPcFK7AcAfHWqlbDTIRjYkGRVhIGMa5szjcZKKiZoB+qh4t3/hcILkK9Q4kBkrDtJsGx6BekpJamx55A1gZH+NQ6+c/cinAi3IQvZTTnuO9aVqHNFnxxxbCMfSgBLyVLIBbYNcelKSi7ltJLfxJtLO7535IJZwD3gYkRPfK69wK2ZP8n5NLcUN6w06mQ0hMjvnXMefoQWDgiEKcrxTRPSakNBzACffgXzWFAhI7nxzKrmhYazebCOXRvGEnz8zc0ZV24vNexKSlseMADVZJz1s4p5lHU/VnseAHyY0grePgeNwrI4L4WfRtiSGd22exPkrCudl5Gr9UIJnVz3ccQYEGNPE2V30QTWRN2ndxdgWnPn+vb6cdOK8zHG0S2HcMT1je9KYYKMX2EOR9uG2/aFQ6Fb3VAnzqUPEWIs0gC+fOoRNjuyUsj8xhT1rN9opLgEqYGRMYUwqaw19bV5G1Axc554nxjaUcRdgzf/NOZqiiY43D1AGLaRixpnNGgd7mbBSZtsx4O5apE1el4MhzbjUW+Hs650CwFIOjVBABtiioJ+QKPnTXwui9Y9FD/zO+crH8jOvCjGQ60Gcku+5tg0sFvn7OskZxnvrgKp5TnCfyq9jdMqs744bRtbFOAPB9YcvpcdZ6rv8C7pTtDxtwPhPLQ1z1gz46DOTM2xEatwmRRy0HE1JeF+238+d1/uAWw9nluvCH12JZQxxpzJsr8tvdGnAIeIFXLmPO6nmX+qbDjbdGTzS+4mkBaQaGPBHKRh+00dyTQCm7ADLDJ7BGylfQ/TyypBouKvWm4b7QUwL6feNTs6OZOSihYKHjm7pITq/8QIH99WEZtKppaXj9fIUp8NNGcD7nu3WSifQH1wArhPKnY/hdopnX5V+i9MAU/Rk75mPTcOEF4BwoZ9/SNuLbXTsmDPHveYWo7Fa9JxTfRhTKMEH5svAgEDaW1vxuXomoZ9jZVZ1WDkN5N3H9RZg8m7kjuJ948D2LPeDmpPqgBV9/Gia/dQaIdrZtN8Q9Ci4FMt3jqIEzGKANEnJz1VOgcfkGRffWP5UAnNU5aOUBJrVKFzq2vQbfqbp4vaIgnk68vv0O1RPFbPUoTQT8rM/6o6rV4/ywNKxeHhTarUBQdQZphmukdFLsO2J494JUFpgDLCJcgdMOJ6wBifbbuCnPcdpuzYqEGQXkdAw5LlUl/hN0ye1cFDDH06wqZBugANpfVks8g6LDUttdwSt8/C5JGp4d69aNTWBqF1d6KRUECZfb1SiIOwIXNCkZN9NI860gqJbMzfZZ0rK+OBZZ53L4Qu/e5VD0+vz/diK6mAGbBa7y42LlhG4YuKYbIG8cQVqrP18EGv6cOO7Swdn+gDbkjhwiBql76vS/ZjpEiNkrehrkwiVv/wMmsIIUakk6wDDHCRQJoX4cvgAcs75Mv4OMAZ88yRA9srXr53WXlrRo9P+nbL7KR5M2AFTWyeuyB6vo2yWPs/dxpboxdWo9L/ErcvRJYAkzT4Y5ekmjuS5wWwzNTCphLsGDs0chGLtK4VydNibVpXl3sPPpmmWLfak/C/GLRPk+kDUAQRaYnCTUD0xfGJD+2vUt6Sp2+Kmah7qb4x0vl1RoO2OY4TTWkQYYbv8KRey3NVVfoMfVMP9WUAO4mavgpcVc+hvK0HrDGu5sc7dM+4bK7cKACo99VZwcMZ4oAaj9oD3yx1B4ciStuaa/01Z/GTTkYjoa+8OloDPcsdbs4kAGDUOOUo2hbi3DARsC9Ju8ItHxNX+2V07foVdWqq6N56Y+GKc5JF9KSx3HZqHpOlVUs8lIy/3Pd93QWdKDV9J5rYcr3O2D3tTAaXVjW82UxUf6UfpwwjSP7kP9As9MCPFHfrt7FgZrP8KtA8CbnTmWoSKmAQUMAACzhJtrEO02Vrs6QFV3K3FCMFCzMx7HaLqgkixh9/cTfZ/gpqt+cwoADIFkqLWylgAAoIMUAB2i+/6MFCPGD/sOE9ctlUIpBhNxXY1lKKrhtiEcaYkDy6PKShQAFTMajGN+oJmjefRPEiEIAdum1cjIoTKdvWh276auzMuic4xOMr8aASItI1v7U+pU5UAAKGY1JHNDmFQPQTvnQ+l7UopyXH8h+IxJHNgv1FW6lSe0oFrTNfJhAImp67mZFupTW/yC1y91gAICYJiQS1lVvh5lPCBJGY4jJCOglAFtbI+0fsPEdTmd/LgmcrgPgl3IvDf+H4AAAC8IRTuvAqvXbWAbyL5lnNbCrjFMhjOf47fAVI9DJfjh6Lmkg2x7EoAWx9WpURVmnubO+MytOxGYDK6NR8SCPdoRlIDROLRJrP4TvNhBQEAg7QFjc53KR4bWzorKnkemaZNpR3Ptv8HGsatZgdXJ56zSteWubWkf9xIUxiM4NrHuTdNAFD4zcKRn/4xju8etJsJ/hKP6bjbYHtxRD/jfWXYB6HJUaG+K8Z3SHK5XL9C+eYRTI301OmM7uUzTChi4xfcj+JwAvaoIMTVNFhGV6ajvhJSlfzhRJw8gdNgPXEeNgTUu9zIrenYgbE4XZaPUGTeHIEYMgv27uQJZ7crY8wmH6WE/1LhVEOm0fs8sj/5bTcmPnKpjop9GG+q3IiDQ4aAAPjR/g57He+UIN1xN2ytXh0FFQR5CeQPqbBpiV4VQ2Xcu3fDu17IKww+Q16abM9GT2NawjC/vIgkl1aP8oXXh5+xCtDkxVWy2Lf+eCE/llZ+zVk3orrG7gcZaxEpBrGpK/QvDa2xwRqJY3nb8rItdzHaUtle+EAIY1AbrF/81thZSCJFhRpwWp0EAIC4aafYgXQ51anP99r0m55flCWalErYG27+9bTXf4gW9PDPWuuYKKm2OtUPR51fhgd3Hs8/zMNxZXBHM5BJYAYAuda33Po87mrcdFXJGXeIeRuiZeiCkbU/xF7EKGIQvLirmdOXk+eEfTASDtLhVMii6yy6a5loOrxjkMYZYefryXX2nf/tIVPOPEeufIO5gGWatx8YRO0n2hYLUIFtXtRQlqaYeN19tNyNd4i5ZqTGy3ksfe+tM4KCnf0JXFhSAxXIKolnYwCvwVHBv1VEMJX9ETnC4FRuUp+ZQ8Eff//u7wsNq1+O+2w6vtvSQApHnh9V/loclwISwvhYe+vsf9BV/uejbjTk7R0Ztadyply87hIumaWbB13mAoSvsPYF4zwOFajwOFk6T6BorCgNC7UIfnktmLIQKsiXX8CzpaUkzwJDSAlCs21z4Q4hV+n4ZTH3YkARn6aVsYc2D3gHhj6CyzUSE1/heJXRHohUjVlccYfGGDnVAukGi2h0nm9bWA1PvyUg4ZfsrH6oq1uA883yeJ36dz+Vu3daQDSBvgX8Kcry0sdFAwlAvDOq2QUMACOYhpQo/ifKkKr6cCNi9OHp+rmZrBAe+A/4zEqMJwStlCKc/MTk3y5H4ZaWmJVcyuHnBMPY6m4CfGBNCZjFWNBHZ5cfEZjUddgGU4zxNE4ajU5J8hEdg7QpOA3Wd4OP+FOsjol0nOVJoATrDmbTGxrUnCWf19zRZRI8fpmCObNlYzARJzJ4F7r7X3p0cX4Y3f8qPu3YaCMTxxvAy4giMFH3ZlgDFlw8HmahRJgCDyMSWz+E2VGxfUyLI2OJoZhq+Zo6udUkdOqElsq/c73Mnz4sfmGIwK1noYXwAD+Qoc0UIToma4G35XFytg7LuhF5mCRVkErVcgMQXCJy1Jel4UHzQtNgYp9Nhx9OI3I4NAI2s6Upv/kpI0pUOC0UFJBjCHb1uZJzn3IXsaTLA1T614HoPWTaWGl/vedChkSJdqcMSaye8TvEJGFiXq36L64/2vT62Lc0aooC+zudm8jJmetxJxg6DL/XvkzU+8/ceEFp836zjR05xW7zSmJrcsJNdDLIX+jgxS8Blvcdt7BRsPMcSNfE3cP42TQo/Kbck5YX6PaputfQkqJQDAZm50p0qwFpWmAhB/3Kds3UjV1lzNBTm8mlTgajy32Qh5FUIV4z4SWtc+oVu4h1LLPLt8RtpHcVCTC4ELkJtGY7gncK+w2roACeEJapIkx2aUqhkYOs9cEFQiXR8eiJ2r0R6I/U04Lhuc90Zo93NntZKvXa4Ni9whp7mDshkvok2laibuBxQRIIYdFiF+WrnhR1EEvHvpxVp7eK5HhymaBepaThO1PMGjEZbwHO0IzA15euE05GNGs/7oSV7r1PTUaPMB2bHfVcRQ4Beg3CjrKNAO/6/J9OOk1j8UAkOtqrYyLnZc0y/tqP/fTJCH3v2oDJZrOMVVO88PMK5imO34bb6KdbJsgha50aPfnh2TRNtaEnuRNWVgBInu/2/E54xQqROHrF4XGK4zaFzLLBuU/r5aGFpLjLTIibl6xOXt/8NNg7MQ8a22D2CBkMovp+5ZyWp+KbEWr1RVZXm2pFZEc+trKguRSOPPmbcs1OyOvrgP4gGWqLk0h/A6zj5P+RUoiF3ninx31yeE1SzvK8qViVv3v8aPhp81jyOd0Dc/MWOB/KrsL5Yqw8EqikXpPg1VS1NWVh9ZJarZmANwfhWRKjYIyb5Gwybf2fpH99KAyOK8eFUF1v9vrp/KODqtKCC8o0V2SI6yFL4oxZS5q5stC2eK96WJyLH4zWGrGP220gTmctWlMFEbviVL/0TZLjVB1bZ9zdLcodzWhgYflUPJQRUEn/J4SjTuajKTExE3DK0z+WnzcqdweDe4l6FpGykH520Uh20mhdI7FeVhTP+a6j675bsRkDlo269RPbDpspfOgA+S2cjJ5RtSX7uTxFfV9k7CxE4+5deri2ofJLql05h0UDSTqRUvPjBoTVMP9CqV9b4QdRmu/Z85fjALeFQmoJ7foU5fWsRr2202HsH/6qcC/HSyPnmanDraZ7fqh0VP/qjrDQj1joueFo2m6HAvhLQmQDh/UCyafZrwCkm9BquwiUwgSaWiI4BORm576dqEznYKEhRSlezeRgb0Nr85kbDOqceXdMvR5kkIJt161Ep4nPC7L4b+4SSqd4bR1L/05mwNe51PQzgW+mEOuzXT0b+Pr/sj7BQruvGDIqxXRylScLA4AAtbAqOVwcQKE8Z7ekwRQnnPBflaMnPgDd9oAQTYMJ6dpkwizdZ8zSLFWiwBZ8yzo8U4MvK1KMuKzsetP/2U7R8wHgtQQYtQ7VwnYPzw5zhpBc5fpKe0WCXjNgafimmBQd5SDGa4Pbk0GsSbhA6yaqGFOQ7y3I1zzii7LiuXVjLqDGEErVsn4oalxkmiNTLvZF+L+thr5fUBUuuKrwUlGO7VTAuwKojaWnLcoArYvmJcGKac2alGC1krnqHSNAxizrUNQ/J1iADLW0oPt+0vGazlBzmRMJYnkbzk3EI7ObD4Tq9C3UmkkV2F6C8ufplJ3tWluD2DsCWG+EmcLxTx5Wy/FRleoHmlfTFTA6uzxKn/75FSxo/95h3IDOCMem9NL8el3CoQZynebGxagn++HutxBkdk63bVPts9cYHxS2K347mAj+rKf1RdokvIftjHaKTKbMJTIPsTl52NBeET+PwR5Wh5kkBrgDayW/nIrGcaAKNAkZ9r36J2vgBnPSpx6BAI7u6V9pZ2EUAuMaE/E0Mi5rYUAu7clGhdSooA0H8KBXhV9c2yRT5uo/a30io3L91HlNhNg5h/MsOZU/JRZMX0u+iaMiET44UfWqnHEfiix1KrPmGML+dJBntQW48/LvoSE0x10P13BKV+ymCdHVgKWten/E/tSmAKqId2y7UrgYPoosZF8HjZQJFBjuiy84PBPN93sqO1bBO1usUsb93HZIuLHXJRI4IWaO2xy3B85n3Xfz8VTn/0H+mJrvdnkzc+2VEq2Q9iJsbcwto9TxT++OG3/SP3MhPyqIVtgYYJNAxRTSmC1I0DCgm0xNzzigTpWHoUSldIRxEaH+yT/+8KptUqSCE1WZRVwwY19wfmgiS+30g0dSL7bwQW5M0sX2llXmw/+q+nCmXBct43J7fGWsWBdgcS3PG2ZsNhupi2OEjeVlYeVbBYKIxBiXSELa3SiD6SQS2dv1ulp/7M25RiPzLS5qD1pwssVp9RmHacSxlyVlCKo35D8agLgzJZ5O6QM9fWKulO6bK2saYMeNpohkveF56MrsNefdlxdutftOyX9uaeuQ0usdYuQKgIhiTVDa9M/FKoMB/6MCMKM+fNnrNGV0oPo71U9YLUZsk9pTaKn7p1a+++VjZwhhWN5Xw6DKgtRpUTRGb2ylUj9eTw4pjGHr9ozuZNSg5CHW28K+m3/3ia0cz2oDFSa2Y4He9Dr1PkUJFug1ARemPkVtLDBB+j5IabvCilUqoxhL1ziyHNaaRuNVAEnWXF3xaCFY73trv/hMM3Fh9XRrQWt2zg6j6aomylNRBSMLclaOK7dsG+eA99PGj54v6NU9JYZFprB4dhvByanpzyp98DDfSaOdb/xHxoJ9LxEH5sryxAPEVwg5q848LDrZXqP94KF8Bn8S+wHoH6QG6nw0ks4Udmr82zwINteiVeVIwp2ajXW26goJoRDPXNKhWe2uyOBmacBngtRYLKqgyvsHquXCQMiA/jbW9SwCbEfpEqd8Z6k563+hqjKvHy1jTAcyUMjJOy67WRcgXrLyzh0lj5/2ICYmU7jS/AYAAAAAAAAAAEVYSUa6AAAARXhpZgAASUkqAAgAAAAGABIBAwABAAAAAQAAABoBBQABAAAAVgAAABsBBQABAAAAXgAAACgBAwABAAAAAgAAABMCAwABAAAAAQAAAGmHBAABAAAAZgAAAAAAAABIAAAAAQAAAEgAAAABAAAABgAAkAcABAAAADAyMTABkQcABAAAAAECAwAAoAcABAAAADAxMDABoAMAAQAAAP//AAACoAQAAQAAADQDAAADoAQAAQAAAC8CAAAAAAAA;" vertex="1" parent="1">
          <mxGeometry x="344" y="420" width="161.36" height="110" as="geometry" />
        </mxCell>
        <mxCell id="z0f8_SjItQ-B4fkTCba1-11" value="&lt;blockquote style=&quot;margin: 0 0 0 40px; border: none; padding: 0px;&quot;&gt;&lt;b&gt;&lt;font style=&quot;font-size: 14px;&quot;&gt;&lt;i&gt;/aws/vpc/{VPC-NICKNAME}/config&lt;/i&gt;&lt;/font&gt;&lt;/b&gt;&lt;/blockquote&gt;&lt;blockquote style=&quot;margin: 0 0 0 40px; border: none; padding: 0px;&quot;&gt;&lt;div&gt;&lt;b&gt;&lt;span style=&quot;font-size: 14px; background-color: transparent; color: light-dark(rgb(0, 0, 0), rgb(255, 255, 255));&quot;&gt;{&lt;/span&gt;&lt;/b&gt;&lt;/div&gt;&lt;div&gt;&lt;div&gt;&lt;span style=&quot;font-size: 14px;&quot;&gt;&lt;b&gt;&lt;span style=&quot;white-space: pre;&quot;&gt;&#x9;&lt;/span&gt;name: main-vpc,&lt;/b&gt;&lt;/span&gt;&lt;/div&gt;&lt;/div&gt;&lt;div&gt;&lt;div&gt;&lt;span style=&quot;font-size: 14px;&quot;&gt;&lt;b&gt;&lt;span style=&quot;white-space: pre;&quot;&gt;&#x9;&lt;/span&gt;cidr: ...,&lt;/b&gt;&lt;/span&gt;&lt;/div&gt;&lt;/div&gt;&lt;div&gt;&lt;div&gt;&lt;span style=&quot;font-size: 14px;&quot;&gt;&lt;b&gt;&lt;span style=&quot;white-space: pre;&quot;&gt;&#x9;&lt;/span&gt;...&lt;/b&gt;&lt;/span&gt;&lt;/div&gt;&lt;/div&gt;&lt;div&gt;&lt;div&gt;&lt;div&gt;&lt;font style=&quot;font-size: 14px;&quot;&gt;&lt;b&gt;}&lt;/b&gt;&lt;/font&gt;&lt;/div&gt;&lt;/div&gt;&lt;/div&gt;&lt;/blockquote&gt;" style="text;html=1;align=left;verticalAlign=middle;whiteSpace=wrap;rounded=0;strokeColor=none;" vertex="1" parent="1">
          <mxGeometry x="10" y="140" width="290" height="130" as="geometry" />
        </mxCell>
        <mxCell id="z0f8_SjItQ-B4fkTCba1-12" value="&lt;b&gt;&lt;font style=&quot;font-size: 18px;&quot;&gt;Instantiate IaC components&lt;/font&gt;&lt;/b&gt;" style="text;html=1;align=left;verticalAlign=middle;whiteSpace=wrap;rounded=0;" vertex="1" parent="1">
          <mxGeometry x="80" y="400" width="330" height="40" as="geometry" />
        </mxCell>
        <mxCell id="z0f8_SjItQ-B4fkTCba1-13" value="&lt;font size=&quot;3&quot;&gt;&lt;b&gt;1&lt;/b&gt;&lt;/font&gt;" style="ellipse;whiteSpace=wrap;html=1;aspect=fixed;" vertex="1" parent="1">
          <mxGeometry x="40" y="95" width="30" height="30" as="geometry" />
        </mxCell>
        <mxCell id="z0f8_SjItQ-B4fkTCba1-14" value="&lt;font size=&quot;3&quot;&gt;&lt;b&gt;2&lt;/b&gt;&lt;/font&gt;" style="ellipse;whiteSpace=wrap;html=1;aspect=fixed;" vertex="1" parent="1">
          <mxGeometry x="40" y="405" width="30" height="30" as="geometry" />
        </mxCell>
        <mxCell id="z0f8_SjItQ-B4fkTCba1-15" value="" style="outlineConnect=0;dashed=0;verticalLabelPosition=bottom;verticalAlign=top;align=center;html=1;shape=mxgraph.aws3.virtual_private_cloud;fillColor=#F58534;gradientColor=none;" vertex="1" parent="1">
          <mxGeometry x="390" y="630" width="79.5" height="54" as="geometry" />
        </mxCell>
        <mxCell id="z0f8_SjItQ-B4fkTCba1-16" value="" style="endArrow=classic;html=1;rounded=0;exitX=1;exitY=0.5;exitDx=0;exitDy=0;exitPerimeter=0;entryX=0;entryY=0.5;entryDx=0;entryDy=0;" edge="1" parent="1" source="z0f8_SjItQ-B4fkTCba1-9" target="z0f8_SjItQ-B4fkTCba1-10">
          <mxGeometry width="50" height="50" relative="1" as="geometry">
            <mxPoint x="590" y="420" as="sourcePoint" />
            <mxPoint x="640" y="370" as="targetPoint" />
          </mxGeometry>
        </mxCell>
        <mxCell id="z0f8_SjItQ-B4fkTCba1-17" value="" style="endArrow=classic;html=1;rounded=0;entryX=0.5;entryY=0;entryDx=0;entryDy=0;dashed=1;dashPattern=8 8;" edge="1" parent="1">
          <mxGeometry width="50" height="50" relative="1" as="geometry">
            <mxPoint x="603.02" y="260" as="sourcePoint" />
            <mxPoint x="437.70000000000005" y="420" as="targetPoint" />
          </mxGeometry>
        </mxCell>
        <mxCell id="z0f8_SjItQ-B4fkTCba1-18" value="&lt;blockquote style=&quot;margin: 0 0 0 40px; border: none; padding: 0px;&quot;&gt;&lt;b&gt;&lt;font style=&quot;font-size: 14px;&quot;&gt;READ:&amp;nbsp;&lt;/font&gt;&lt;/b&gt;&lt;/blockquote&gt;&lt;blockquote style=&quot;margin: 0 0 0 40px; border: none; padding: 0px;&quot;&gt;&lt;b&gt;&lt;font style=&quot;font-size: 14px;&quot;&gt;&lt;i&gt;/aws/vpc/{&lt;/i&gt;&lt;/font&gt;&lt;/b&gt;&lt;b style=&quot;&quot;&gt;&lt;font style=&quot;font-size: 14px;&quot;&gt;&lt;i&gt;VPC-NICKNAME&lt;/i&gt;&lt;/font&gt;&lt;/b&gt;&lt;b&gt;&lt;font style=&quot;font-size: 14px;&quot;&gt;&lt;i&gt;}/config&lt;/i&gt;&lt;/font&gt;&lt;/b&gt;&lt;/blockquote&gt;" style="text;html=1;align=right;verticalAlign=middle;whiteSpace=wrap;rounded=0;strokeColor=none;" vertex="1" parent="1">
          <mxGeometry x="170" y="310" width="313.14" height="60" as="geometry" />
        </mxCell>
        <mxCell id="z0f8_SjItQ-B4fkTCba1-20" value="&lt;blockquote style=&quot;margin: 0 0 0 40px; border: none; padding: 0px;&quot;&gt;&lt;b&gt;&lt;font style=&quot;font-size: 14px;&quot;&gt;&lt;i&gt;{&lt;/i&gt;&lt;/font&gt;&lt;/b&gt;&lt;b&gt;&lt;font style=&quot;font-size: 14px;&quot;&gt;&lt;i&gt;VPC-NICKNAME&lt;/i&gt;&lt;/font&gt;&lt;/b&gt;&lt;b&gt;&lt;font style=&quot;font-size: 14px;&quot;&gt;&lt;i&gt;}&lt;/i&gt;&lt;/font&gt;&lt;/b&gt;&lt;/blockquote&gt;" style="text;html=1;align=left;verticalAlign=middle;whiteSpace=wrap;rounded=0;strokeColor=none;" vertex="1" parent="1">
          <mxGeometry x="140" y="470" width="190" height="40" as="geometry" />
        </mxCell>
        <mxCell id="z0f8_SjItQ-B4fkTCba1-21" value="" style="endArrow=classic;html=1;rounded=0;dashed=1;dashPattern=8 8;exitX=0.822;exitY=-0.009;exitDx=0;exitDy=0;exitPerimeter=0;" edge="1" parent="1" source="z0f8_SjItQ-B4fkTCba1-10">
          <mxGeometry width="50" height="50" relative="1" as="geometry">
            <mxPoint x="770" y="350" as="sourcePoint" />
            <mxPoint x="580" y="320" as="targetPoint" />
          </mxGeometry>
        </mxCell>
        <mxCell id="z0f8_SjItQ-B4fkTCba1-22" value="AWS Cloud" style="points=[[0,0],[0.25,0],[0.5,0],[0.75,0],[1,0],[1,0.25],[1,0.5],[1,0.75],[1,1],[0.75,1],[0.5,1],[0.25,1],[0,1],[0,0.75],[0,0.5],[0,0.25]];outlineConnect=0;gradientColor=none;html=1;whiteSpace=wrap;fontSize=12;fontStyle=0;container=1;pointerEvents=0;collapsible=0;recursiveResize=0;shape=mxgraph.aws4.group;grIcon=mxgraph.aws4.group_aws_cloud_alt;strokeColor=#232F3E;fillColor=none;verticalAlign=top;align=left;spacingLeft=30;fontColor=#232F3E;dashed=0;" vertex="1" parent="1">
          <mxGeometry x="286.57" y="579.5" width="300" height="155" as="geometry" />
        </mxCell>
        <mxCell id="z0f8_SjItQ-B4fkTCba1-19" value="&lt;blockquote style=&quot;margin: 0 0 0 40px; border: none; padding: 0px;&quot;&gt;&lt;b&gt;&lt;font style=&quot;font-size: 14px;&quot;&gt;WRITE:&lt;/font&gt;&lt;/b&gt;&lt;/blockquote&gt;&lt;blockquote style=&quot;margin: 0 0 0 40px; border: none; padding: 0px;&quot;&gt;&lt;b&gt;&lt;font style=&quot;font-size: 14px;&quot;&gt;&lt;i&gt;/aws/vpc/{&lt;/i&gt;&lt;/font&gt;&lt;/b&gt;&lt;b&gt;&lt;font style=&quot;font-size: 14px;&quot;&gt;&lt;i&gt;VPC-NICKNAME&lt;/i&gt;&lt;/font&gt;&lt;/b&gt;&lt;b&gt;&lt;font style=&quot;font-size: 14px;&quot;&gt;&lt;i&gt;}/runtime&lt;/i&gt;&lt;/font&gt;&lt;/b&gt;&lt;/blockquote&gt;&lt;blockquote style=&quot;margin: 0 0 0 40px; border: none; padding: 0px;&quot;&gt;&lt;div&gt;&lt;b&gt;&lt;span style=&quot;font-size: 14px; background-color: transparent; color: light-dark(rgb(0, 0, 0), rgb(255, 255, 255));&quot;&gt;{&lt;/span&gt;&lt;/b&gt;&lt;/div&gt;&lt;div&gt;&lt;div&gt;&lt;span style=&quot;font-size: 14px;&quot;&gt;&lt;b&gt;&lt;span style=&quot;white-space: pre;&quot;&gt;&#x9;&lt;/span&gt;arn: ...,&lt;/b&gt;&lt;/span&gt;&lt;/div&gt;&lt;/div&gt;&lt;div&gt;&lt;div&gt;&lt;span style=&quot;font-size: 14px;&quot;&gt;&lt;b&gt;&lt;span style=&quot;white-space: pre;&quot;&gt;&#x9;&lt;/span&gt;subnets: ...,&lt;/b&gt;&lt;/span&gt;&lt;/div&gt;&lt;/div&gt;&lt;div&gt;&lt;div&gt;&lt;span style=&quot;font-size: 14px;&quot;&gt;&lt;b&gt;&lt;span style=&quot;white-space: pre;&quot;&gt;&#x9;&lt;/span&gt;...&lt;/b&gt;&lt;/span&gt;&lt;/div&gt;&lt;/div&gt;&lt;div&gt;&lt;div&gt;&lt;div&gt;&lt;font style=&quot;font-size: 14px;&quot;&gt;&lt;b&gt;}&lt;/b&gt;&lt;/font&gt;&lt;/div&gt;&lt;/div&gt;&lt;/div&gt;&lt;/blockquote&gt;" style="text;html=1;align=left;verticalAlign=middle;whiteSpace=wrap;rounded=0;strokeColor=none;" vertex="1" parent="1">
          <mxGeometry x="505.36" y="380" width="293.43" height="130" as="geometry" />
        </mxCell>
        <mxCell id="z0f8_SjItQ-B4fkTCba1-23" value="" style="html=1;shadow=0;dashed=0;align=center;verticalAlign=middle;shape=mxgraph.arrows2.arrow;dy=0.6;dx=40;direction=south;notch=0;" vertex="1" parent="1">
          <mxGeometry x="404" y="534.25" width="41.82" height="69.5" as="geometry" />
        </mxCell>
        <mxCell id="z0f8_SjItQ-B4fkTCba1-24" value="&lt;font size=&quot;3&quot;&gt;&lt;b&gt;2a&lt;/b&gt;&lt;/font&gt;" style="ellipse;whiteSpace=wrap;html=1;aspect=fixed;" vertex="1" parent="1">
          <mxGeometry x="490" y="310" width="30" height="30" as="geometry" />
        </mxCell>
        <mxCell id="z0f8_SjItQ-B4fkTCba1-25" value="&lt;font size=&quot;3&quot;&gt;&lt;b&gt;2c&lt;/b&gt;&lt;/font&gt;" style="ellipse;whiteSpace=wrap;html=1;aspect=fixed;" vertex="1" parent="1">
          <mxGeometry x="550" y="350" width="30" height="30" as="geometry" />
        </mxCell>
        <mxCell id="z0f8_SjItQ-B4fkTCba1-27" value="&lt;font size=&quot;3&quot;&gt;&lt;b&gt;2b&lt;/b&gt;&lt;/font&gt;" style="ellipse;whiteSpace=wrap;html=1;aspect=fixed;" vertex="1" parent="1">
          <mxGeometry x="460" y="534.25" width="30" height="30" as="geometry" />
        </mxCell>
        <mxCell id="z0f8_SjItQ-B4fkTCba1-28" value="&lt;blockquote style=&quot;margin: 0 0 0 40px; border: none; padding: 0px;&quot;&gt;&lt;span style=&quot;font-size: 14px;&quot;&gt;&lt;b&gt;DEPLOY&lt;/b&gt;&lt;/span&gt;&lt;/blockquote&gt;" style="text;html=1;align=left;verticalAlign=middle;whiteSpace=wrap;rounded=0;strokeColor=none;" vertex="1" parent="1">
          <mxGeometry x="456.07" y="532" width="130.5" height="35.75" as="geometry" />
        </mxCell>
      </root>
    </mxGraphModel>
  </diagram>
</mxfile>
